<svg xmlns="http://www.w3.org/2000/svg" version="1.1" viewBox="-5.0 -10.0 110.0 135.0">
 <path fill="#currentColor" d="m38.102 42.641c-1.1328-3.0117-1.4062-6.2695-0.82812-9.4023 0.625-3.3789 2.2422-6.6094 4.8477-9.2148l0.085937-0.082032c1.8867-1.8633 4.0938-3.2148 6.4375-4.0469 2.4648-0.87891 5.0938-1.1836 7.6758-0.92578 0.82031 0.082031 1.4219 0.8125 1.3398 1.6328-0.035156 0.35938-0.19531 0.67578-0.42969 0.91016l-6.0352 6.043 2.5859 9.6523 9.6523 2.5859 6.0391-6.0391c0.58594-0.58594 1.5352-0.58594 2.1211 0 0.28125 0.28125 0.42578 0.64844 0.4375 1.0195 0.24219 2.5469-0.070312 5.1406-0.93359 7.5703-0.84766 2.3828-2.2266 4.625-4.1289 6.5234-2.6055 2.6055-5.8359 4.2227-9.2148 4.8477-3.1328 0.57812-6.3906 0.30078-9.4023-0.83203l-16.844 16.844c-0.054687 1.082-0.28516 2.1523-0.69531 3.1602l-0.035156 0.082031c-0.48047 1.1523-1.1836 2.2305-2.1094 3.1562l-0.089844 0.082031c-1.8945 1.8516-4.3555 2.7773-6.8164 2.7773-2.5 0-5-0.95312-6.9062-2.8594s-2.8594-4.4062-2.8594-6.9023c0-2.5 0.95312-5 2.8594-6.9062 0.95312-0.95312 2.0586-1.668 3.2383-2.1445 1.0078-0.40625 2.0781-0.64062 3.1602-0.69531l16.848-16.848zm34.977-30.742c1.8047 0 3.4375 0.73047 4.6211 1.9141 1.1797 1.1797 1.9141 2.8164 1.9141 4.6211 0 1.8008-0.73047 3.4375-1.9141 4.6211-1.1797 1.1797-2.8164 1.9141-4.6211 1.9141-1.8008 0-3.4375-0.73047-4.6211-1.9141-1.1797-1.1797-1.9141-2.8164-1.9141-4.6211 0-1.8047 0.73047-3.4375 1.9141-4.6211 1.1797-1.1797 2.8164-1.9141 4.6211-1.9141zm2.5 4.0352c-0.63672-0.63672-1.5234-1.0352-2.5-1.0352-0.97266 0-1.8594 0.39844-2.5 1.0352-0.63672 0.63672-1.0352 1.5234-1.0352 2.5 0 0.97266 0.39844 1.8594 1.0352 2.5 0.63672 0.63672 1.5234 1.0352 2.5 1.0352s1.8594-0.39844 2.5-1.0352c0.63672-0.63672 1.0352-1.5234 1.0352-2.5 0-0.97656-0.39844-1.8594-1.0352-2.5zm-5.7109-12.379 13.43 3.5977c0.53516 0.14453 0.92578 0.55859 1.0625 1.0625l3.6016 13.43c0.14844 0.55859-0.039063 1.1328-0.44141 1.4961l-9.7734 9.7773c-0.39062 0.39062-0.94531 0.52344-1.4453 0.39062l-13.43-3.5977c-0.53516-0.14453-0.92578-0.55859-1.0625-1.0625l-3.6016-13.43c-0.14844-0.55859 0.039063-1.1328 0.44141-1.4961l9.7734-9.7773c0.39062-0.39062 0.94531-0.52344 1.4453-0.39062zm5.9414 4.6914-5.8828-1.5742-8.6055 8.6094 3.1523 11.762 11.762 3.1484 8.6055-8.6055-3.1523-11.762-5.8789-1.5742zm-19.539 57.609c2.8398 0 5.4102 1.1523 7.2734 3.0156 1.8672 1.8633 3.0195 4.4375 3.0195 7.2812 0 2.8398-1.1523 5.4102-3.0156 7.2734-1.8672 1.8672-4.4414 3.0195-7.2812 3.0195s-5.4102-1.1523-7.2734-3.0156c-1.8672-1.8672-3.0195-4.4414-3.0195-7.2812 0-2.8398 1.1523-5.418 3.0156-7.2812l0.089844-0.082032c1.8555-1.8125 4.3945-2.9336 7.1914-2.9336zm5.1602 5.1367c-1.3164-1.3164-3.1445-2.1367-5.1602-2.1367-1.9805 0-3.7773 0.78906-5.0898 2.0664l-0.066407 0.070313c-1.3203 1.3203-2.1367 3.1445-2.1367 5.1602s0.81641 3.8438 2.1328 5.1602 3.1445 2.1328 5.1602 2.1328 3.8438-0.81641 5.1602-2.1328c1.3164-1.3164 2.1328-3.1445 2.1328-5.1602s-0.81641-3.8398-2.1367-5.1602zm-0.019532-9.9141c0.69531 0.26172 1.2109 0.47656 1.8828 0.78125l2.6719-2.6719c0.58594-0.58594 1.5352-0.58594 2.1211 0l5.1445 5.1445c0.58594 0.58594 0.58594 1.5352 0 2.1211l-2.6719 2.6641c0.15625 0.3125 0.29688 0.62109 0.42578 0.93359l0.35938 0.95312h3.7734c0.82812 0 1.5 0.67188 1.5 1.5v7.2773c0 0.82812-0.67188 1.5-1.5 1.5h-3.7734c-0.26172 0.69531-0.47656 1.2148-0.78516 1.8906l2.668 2.6641c0.58594 0.58203 0.58984 1.5312 0.007813 2.1172l-5.1484 5.1523c-0.58594 0.58594-1.5352 0.58594-2.1211 0l-2.6641-2.6719c-0.30859 0.15234-0.62109 0.29688-0.93359 0.42578l-0.96094 0.35938v3.7734c0 0.82812-0.67188 1.5-1.5 1.5h-7.2773c-0.82812 0-1.5-0.67188-1.5-1.5v-3.7734l-0.95703-0.35938c-0.3125-0.12891-0.625-0.27344-0.93359-0.42578l-2.6641 2.668c-0.58203 0.58594-1.5312 0.58984-2.1172 0.007813l-5.1523-5.1523c-0.57813-0.58203-0.57813-1.5273 0-2.1094l2.6719-2.6719-0.42578-0.93359c-0.12891-0.3125-0.25-0.62891-0.35938-0.95703h-3.7734c-0.82812 0-1.5-0.67188-1.5-1.5v-7.2773c0-0.82812 0.67188-1.5 1.5-1.5h3.7734l0.35938-0.95312c0.12891-0.31641 0.26953-0.62891 0.42188-0.93359l-2.668-2.668c-0.58594-0.58594-0.58594-1.5352 0-2.1211l5.1523-5.1445c0.58203-0.58203 1.5312-0.57812 2.1133 0.003906l2.6719 2.6641c0.30859-0.15234 0.61719-0.29297 0.92969-0.42188l0.95703-0.35938v-3.7734c0-0.82812 0.67188-1.5 1.5-1.5h7.2773c0.82812 0 1.5 0.67188 1.5 1.5v3.7734zm-0.19531 3.125c-0.51562-0.21484-1.0391-0.39453-1.5664-0.53516-0.70313-0.125-1.2383-0.73828-1.2383-1.4766v-3.3867h-4.2773v3.3867c-0.003906 0.66406-0.45312 1.2734-1.125 1.4453-0.56641 0.14453-1.1289 0.33594-1.6836 0.56641-0.52344 0.21875-1.0234 0.46094-1.4844 0.72656-0.58594 0.41406-1.4023 0.36328-1.9258-0.16406l-2.3984-2.3984-3.0234 3.0273 2.3984 2.3984c0.46484 0.47266 0.57812 1.2188 0.22656 1.8164-0.29297 0.49609-0.55859 1.0312-0.79297 1.5938-0.21094 0.50781-0.39453 1.0352-0.53906 1.5703-0.125 0.70312-0.73828 1.2383-1.4766 1.2383h-3.3828v4.2773h3.3867c0.66406 0.003907 1.2734 0.45313 1.4453 1.125 0.14453 0.56641 0.33594 1.1289 0.56641 1.6836 0.22656 0.54297 0.48047 1.0586 0.75781 1.5352 0.375 0.57813 0.3125 1.3633-0.19141 1.8711l-2.3984 2.4023 3.0312 3.0312 2.3945-2.3945c0.46875-0.47266 1.2148-0.58594 1.8164-0.23438 0.49219 0.28906 1.0273 0.55469 1.5938 0.79297 0.51562 0.21484 1.043 0.39453 1.5703 0.53906 0.70312 0.125 1.2383 0.73828 1.2383 1.4766v3.3867h4.2773v-3.3867c0.003907-0.66406 0.45313-1.2734 1.125-1.4453 0.56641-0.14844 1.1328-0.33984 1.6875-0.57031 0.53906-0.22266 1.0508-0.47656 1.5273-0.75391 0.58203-0.38281 1.375-0.31641 1.8828 0.19531l2.3906 2.3906 3.0312-3.0312-2.3906-2.3906c-0.47266-0.46875-0.58594-1.2148-0.23438-1.8164 0.28516-0.48437 0.53906-0.99609 0.76562-1.5234l0.027343-0.074219c0.21484-0.51562 0.39453-1.0391 0.53516-1.5664 0.125-0.70312 0.73828-1.2383 1.4766-1.2383h3.3867v-4.2773h-3.3867c-0.66406-0.003906-1.2734-0.45312-1.4453-1.125-0.14453-0.56641-0.33594-1.1289-0.56641-1.6836-0.22656-0.54297-0.48047-1.0625-0.75781-1.5391-0.375-0.57812-0.3125-1.3633 0.19531-1.8711l2.3984-2.3984-3.0273-3.0273-2.3945 2.3945c-0.47266 0.46484-1.2188 0.57812-1.8164 0.22656-0.48438-0.28516-0.99609-0.53906-1.5234-0.76563l-0.074219-0.027343zm-20.996-30.422c-0.52734 2.8477-0.20312 5.8203 0.97266 8.5078 0.30469 0.56641 0.21875 1.293-0.26172 1.7734l-17.969 17.969c-0.28125 0.27344-0.66406 0.44141-1.0859 0.43359-0.89453-0.015625-1.8008 0.15234-2.6523 0.49609-0.8125 0.32812-1.5781 0.82812-2.2422 1.4883-1.3203 1.3203-1.9805 3.0508-1.9805 4.7852 0 1.7305 0.66016 3.4648 1.9805 4.7812 1.3203 1.3203 3.0508 1.9805 4.7852 1.9805 1.7031 0 3.4062-0.63672 4.7148-1.9102l0.066406-0.070313c0.64844-0.64844 1.1367-1.3906 1.4609-2.1719l0.027344-0.070312c0.33203-0.81641 0.49609-1.6836 0.5-2.5469-0.039062-0.42578 0.10547-0.86719 0.43359-1.1914l17.969-17.969c0.42969-0.42188 1.0898-0.5625 1.6719-0.30469 2.7148 1.2109 5.7266 1.5508 8.6133 1.0156 2.7891-0.51562 5.4648-1.8594 7.6328-4.0273 1.582-1.582 2.7266-3.4336 3.4258-5.3984 0.33203-0.92969 0.56641-1.8867 0.70312-2.8516l-4.0273 4.0273c-0.36719 0.36328-0.91406 0.52734-1.4453 0.38672l-11.324-3.0352c-0.5-0.13281-0.91797-0.52344-1.0625-1.0625l-3.0117-11.246c-0.16797-0.51953-0.046875-1.1133 0.36328-1.5273l4.0273-4.0273c-0.96484 0.13672-1.9219 0.37109-2.8516 0.70312-1.9414 0.69141-3.7656 1.8086-5.3281 3.3477l-0.070313 0.078125c-2.168 2.168-3.5117 4.8438-4.0273 7.6328z"/>
<text x="0.0" y="117.5" font-size="5.0" font-weight="bold" font-family="Arbeit Regular, Helvetica, Arial-Unicode, Arial, Sans-serif" fill="#000000">Created by Imron Sadewo</text><text x="0.0" y="122.5" font-size="5.0" font-weight="bold" font-family="Arbeit Regular, Helvetica, Arial-Unicode, Arial, Sans-serif" fill="#000000">from Noun Project</text></svg>