<svg xmlns="http://www.w3.org/2000/svg" version="1.1" viewBox="-5.0 -10.0 110.0 135.0">
 <path d="m83.809 14h-35.68c-1.3047 0.003906-2.3633 1.0625-2.3672 2.3711v0.71094h-0.12109v-0.003906c-1.3086 0.007813-2.3633 1.0664-2.3711 2.3711v8.2305c-2.7461-1.6484-5.8867-2.5195-9.0898-2.5195-5.1758 0-10.094 2.2461-13.48 6.1602-3.3906 3.9102-4.9141 9.1016-4.1758 14.223 0.73828 5.1211 3.6641 9.6719 8.0156 12.469l-3 7.3281c-1.0273-0.082032-1.9922 0.51562-2.3789 1.4688l-5 12.5c-0.96875 2.4258 0.20312 5.1758 2.6211 6.1602l0.26953 0.10938c0.55859 0.22656 1.1562 0.34375 1.7578 0.34375 0.64062-0.003906 1.2734-0.13281 1.8633-0.38281 1.1523-0.47266 2.0703-1.3867 2.5469-2.5391l5-12.5c0.24219-0.57812 0.24219-1.2305 0-1.8086-0.14453-0.35156-0.37891-0.65625-0.67969-0.89062l2.9219-7.2812c1.2148 0.25781 2.457 0.38672 3.6992 0.39062 3.2031 0 6.3438-0.87109 9.0898-2.5195v4.6094c0.003906 1.3047 1.0625 2.3633 2.3711 2.3711h33.879c0.99609-0.003906 1.8867-0.63281 2.2188-1.5703h2.0898c1.3047-0.007812 2.3633-1.0664 2.3633-2.3711v-45c0.015625-0.63672-0.22656-1.2539-0.67188-1.7109-0.44141-0.45703-1.0508-0.71484-1.6914-0.71875zm-57 55.859-5 12.5c-0.3125 0.78125-0.92578 1.4023-1.6992 1.7305-0.76953 0.32422-1.6406 0.32422-2.4102 0l-0.26953-0.10156c-1.6133-0.65625-2.3945-2.4883-1.75-4.1094l5-12.5c0.11719-0.30078 0.40625-0.49609 0.73047-0.5 0.10156 0 0.20312 0.023438 0.30078 0.0625l4.6484 1.8789c0.19922 0.070313 0.35547 0.22266 0.42969 0.41797 0.10547 0.21094 0.10547 0.45312 0 0.66016zm-0.64844-2.8203-3.0508-1.2188 2.8203-7c0.96094 0.50391 1.9648 0.92188 3 1.25zm-8.2305-24c0.003906-4.3164 1.7188-8.4531 4.7734-11.5 3.0547-3.0508 7.1953-4.7617 11.512-4.7578 4.3125 0.003906 8.4531 1.7188 11.5 4.7734 3.0508 3.0547 4.7578 7.1953 4.7539 11.512s-1.7227 8.4531-4.7773 11.5c-3.0547 3.0508-7.1953 4.7578-11.512 4.7539-4.3125-0.003906-8.4492-1.7227-11.5-4.7734-3.0469-3.0469-4.7656-7.1836-4.7695-11.496zm61.57 20.699h-33.859c-0.43359-0.003906-0.78516-0.35547-0.78906-0.78906v-5.6289c4.5156-3.3516 7.1797-8.6445 7.1797-14.27s-2.6641-10.918-7.1797-14.27v-9.293c0.003907-0.43359 0.35547-0.78125 0.78906-0.78906h23.359v10.18c0 0.4375 0.35547 0.79297 0.78906 0.79297h10.5v33.328c-0.027343 0.41797-0.37109 0.74219-0.78906 0.73828zm-0.37109-35.648h-8.5781v-8.3086zm5.4727 33.289c0 0.21094-0.085937 0.41016-0.23437 0.55859-0.14844 0.14844-0.34766 0.23438-0.55859 0.23438h-1.9375v-33.293c0-0.20703-0.082032-0.41016-0.23047-0.55859l-11.309-11h-0.003906c-0.035156-0.027343-0.070313-0.050781-0.10938-0.070312-0.042969-0.035156-0.089844-0.0625-0.14062-0.089844-0.09375-0.042968-0.19531-0.0625-0.29688-0.058594h-22.441v-0.71094c0-0.4375 0.35547-0.78906 0.78906-0.78906h35.68c0.21094 0 0.41016 0.082032 0.55859 0.23047 0.14844 0.14844 0.23437 0.34766 0.23437 0.55859zm-21.902-29.379c-4.2305 0.046875-7.9727 2.75-9.3438 6.75-1.375 4-0.082031 8.4336 3.2227 11.07 0.37891 0.28906 0.625 0.71094 0.69141 1.1797-0.66797 0.41016-1.1133 1.0977-1.2148 1.875-0.10547 0.77344 0.14844 1.5547 0.68359 2.125-0.48438 0.49609-0.75 1.1641-0.73828 1.8594 0 1.4531 1.1758 2.6289 2.6289 2.6289h0.10156v0.27344c0 0.52734 0.21094 1.0391 0.58594 1.4141s0.88281 0.58594 1.4141 0.58594h4.0703c0.53125 0 1.0391-0.21094 1.4141-0.58594s0.58594-0.88672 0.58594-1.4141v-0.26953h0.10156l-0.003906-0.003907c1.4531 0 2.6328-1.1758 2.6328-2.6289 0.007812-0.69531-0.26953-1.3672-0.76172-1.8594 0.48828-0.48828 0.76172-1.1484 0.76172-1.8398-0.011719-0.96484-0.54297-1.8438-1.3906-2.3008 0.089844-0.42969 0.33594-0.81641 0.6875-1.0781 3.2773-2.6445 4.5469-7.0625 3.1758-11.043-1.375-3.9805-5.0938-6.6758-9.3047-6.7383zm-2.0977 10.461h-1c-0.40625 0-0.76953-0.24609-0.92578-0.61719-0.15625-0.375-0.070312-0.80469 0.21875-1.0898 0.28516-0.28516 0.71484-0.37109 1.0898-0.21875 0.37109 0.15625 0.61719 0.51953 0.61719 0.92578zm2.6289 8.1094h-1v-6.5703h1zm3.6719 1.5781h-0.003906c0.57812 0 1.0469 0.46875 1.0469 1.0469 0 0.57813-0.46875 1.043-1.0469 1.043h-8.2891c-0.57812 0-1.043-0.46484-1.043-1.043 0-0.57812 0.46484-1.0469 1.043-1.0469zm-1.6797 7.6094-0.003906 0.003907c0 0.10938-0.042969 0.21484-0.12109 0.29688-0.078125 0.078125-0.1875 0.12109-0.29688 0.12109h-4.0898c-0.23438 0-0.42188-0.1875-0.42188-0.41797v-0.26953h4.9297zm1.6797-1.8516-8.293 0.003906c-0.57812 0-1.043-0.46875-1.043-1.0469 0-0.57422 0.46484-1.043 1.043-1.043h8.2891c0.57812 0 1.0469 0.46875 1.0469 1.043 0 0.57812-0.46875 1.0469-1.0469 1.0469zm1-9.3398-0.003906 0.003906c-0.64844 0.48828-1.0977 1.1992-1.2578 2h-1.832v-6.5703h1c1.0625 0.003906 2.0195-0.63281 2.4297-1.6094 0.40625-0.98047 0.1875-2.1094-0.5625-2.8594s-1.875-0.97656-2.8555-0.57422c-0.98047 0.40625-1.6211 1.3633-1.6211 2.4219v1h-1v-1c0-1.0586-0.63672-2.0117-1.6133-2.418-0.97656-0.40625-2.1016-0.1875-2.8516 0.55859-0.75 0.74609-0.98047 1.8711-0.58203 2.8477 0.40234 0.98047 1.3516 1.625 2.4062 1.6328h1v6.5312h-1.75c-0.16797-0.79688-0.61328-1.5078-1.2578-2-2.8281-2.2031-3.9453-5.957-2.7812-9.3477 1.1641-3.3867 4.3516-5.6641 7.9336-5.6641 3.5859 0 6.7734 2.2773 7.9375 5.6641 1.1641 3.3906 0.046875 7.1445-2.7812 9.3477zm-3-6.1094v-1l-0.003906 0.003907c0-0.40625 0.24609-0.76953 0.61719-0.92578 0.375-0.15234 0.80469-0.066406 1.0898 0.21875 0.28906 0.28516 0.375 0.71484 0.21875 1.0898-0.15625 0.37109-0.51953 0.61719-0.92578 0.61719zm-15.281-21.105c0-0.4375 0.35156-0.79297 0.78906-0.79297h14.59c0.4375 0 0.78906 0.35547 0.78906 0.79297 0 0.43359-0.35156 0.78906-0.78906 0.78906h-14.59c-0.43359-0.007813-0.78516-0.35547-0.78906-0.78906zm15.379 4.4297h-14.59c-0.4375 0-0.78906-0.35547-0.78906-0.79297 0-0.43359 0.35156-0.78906 0.78906-0.78906h14.59c0.4375 0 0.78906 0.35547 0.78906 0.78906 0 0.4375-0.35156 0.79297-0.78906 0.79297zm-30.82 2.2773c-3.9766 0-7.793 1.582-10.605 4.3945s-4.3945 6.6289-4.3945 10.605c0 3.9805 1.582 7.7969 4.3945 10.609s6.6289 4.3906 10.605 4.3906c3.9805 0 7.793-1.5781 10.605-4.3906 2.8164-2.8125 4.3945-6.6289 4.3945-10.609 0-3.9766-1.5781-7.793-4.3945-10.605-2.8125-2.8125-6.625-4.3945-10.605-4.3945zm0 28.41c-5.4297 0.003906-10.324-3.2617-12.406-8.2773-2.0781-5.0117-0.93359-10.785 2.9023-14.629 3.8398-3.8398 9.6133-4.9883 14.629-2.9102 5.0156 2.0742 8.2852 6.9688 8.2852 12.398-0.003906 7.4062-6.0039 13.406-13.41 13.418zm7.3984-17.141h-0.37891v-1.7266c0-1.3086-1.0586-2.3711-2.3711-2.3711h-2.8281c-0.29297 0-0.5625 0.16016-0.69922 0.41797-0.14844 0.25-0.14844 0.5625 0 0.8125 0.14062 0.21484 0.21875 0.46875 0.21875 0.73047-0.058593 0.66406-0.61719 1.1758-1.2852 1.1758s-1.2266-0.51172-1.2852-1.1758c0-0.26172 0.074219-0.51562 0.22266-0.73047 0.14844-0.25 0.14844-0.5625 0-0.8125-0.13281-0.25781-0.40234-0.42188-0.69141-0.41797h-2.8398c-1.3086 0-2.3711 1.0625-2.3711 2.3711v9.1914-0.003907c0 1.3086 1.0625 2.3711 2.3711 2.3711h1.75v0.37891c0.089844 1.5156 1.3438 2.7031 2.8633 2.7031 1.5195 0 2.7773-1.1875 2.8672-2.7031 0.007812-0.125 0.007812-0.25391 0-0.37891h1.7617-0.003906c0.62891 0 1.2344-0.25 1.6758-0.69531 0.44531-0.44531 0.69531-1.0469 0.69531-1.6758v-1.7891c0.125 0.011719 0.25391 0.011719 0.37891 0 1.5195-0.089844 2.7031-1.3477 2.7031-2.8633 0-1.5195-1.1836-2.7773-2.7031-2.8672zm0 4.1484v0.003907c-0.25781-0.003907-0.51172-0.078125-0.72656-0.21875-0.25-0.15234-0.5625-0.15234-0.8125 0-0.25781 0.13672-0.41797 0.40625-0.41797 0.69922v2.8789c0 0.21094-0.085938 0.41016-0.23438 0.55859-0.14453 0.14844-0.34766 0.23047-0.55859 0.23047h-2.8281c-0.29297 0.003906-0.5625 0.16406-0.69922 0.42188-0.14844 0.25-0.14844 0.55859 0 0.80859 0.14062 0.21875 0.21875 0.47266 0.21875 0.73047 0.003907 0.41016-0.19141 0.79688-0.52344 1.043-0.32812 0.24219-0.75781 0.31641-1.1484 0.19531-0.39453-0.12109-0.70312-0.42578-0.83594-0.8125-0.13672-0.39062-0.074219-0.81641 0.16016-1.1562 0.14844-0.25 0.14844-0.55859 0-0.80859-0.13281-0.26172-0.40234-0.42188-0.69141-0.42188h-2.8398c-0.4375 0-0.78906-0.35156-0.78906-0.78906v-9.2383c0-0.4375 0.35156-0.79297 0.78906-0.79297h1.75v0.37891 0.003906c0.089844 1.5156 1.3438 2.6992 2.8633 2.6992 1.5195 0 2.7773-1.1836 2.8672-2.6992 0.007812-0.12891 0.007812-0.25391 0-0.38281h1.7617-0.003906c0.21094 0 0.41016 0.085937 0.55859 0.23438 0.14844 0.14844 0.23438 0.34766 0.23438 0.55859v2.8789c-0.003906 0.28906 0.16016 0.55859 0.41797 0.69141 0.25 0.14844 0.5625 0.14844 0.80859 0 0.33984-0.23438 0.76953-0.29688 1.1562-0.16016 0.39062 0.13281 0.69141 0.44141 0.8125 0.83594 0.12109 0.39062 0.050781 0.82031-0.19531 1.1484-0.24219 0.33203-0.63281 0.52734-1.043 0.52344z"/>
<text x="0.0" y="117.5" font-size="5.0" font-weight="bold" font-family="Arbeit Regular, Helvetica, Arial-Unicode, Arial, Sans-serif" fill="#000000">Created by Nurul Huda</text><text x="0.0" y="122.5" font-size="5.0" font-weight="bold" font-family="Arbeit Regular, Helvetica, Arial-Unicode, Arial, Sans-serif" fill="#000000">from Noun Project</text></svg>