<svg xmlns="http://www.w3.org/2000/svg" xmlns:xlink="http://www.w3.org/1999/xlink" version="1.1" x="0px" y="0px" viewBox="0 0 98 122.5" style="enable-background:new 0 0 98 98;" xml:space="preserve"><path d="M82.507,75.575c0,0.78-0.633,1.413-1.413,1.413h-1.935c-0.78,0-1.413-0.633-1.413-1.413s0.633-1.413,1.413-1.413h1.935  C81.874,74.162,82.507,74.794,82.507,75.575z M81.094,80.984h-1.935c-0.78,0-1.413,0.633-1.413,1.413s0.633,1.413,1.413,1.413h1.935  c0.78,0,1.413-0.633,1.413-1.413S81.874,80.984,81.094,80.984z M81.418,87.806h-1.935c-0.78,0-1.413,0.633-1.413,1.413  s0.633,1.413,1.413,1.413h1.935c0.78,0,1.413-0.633,1.413-1.413S82.198,87.806,81.418,87.806z M18.841,74.162h-1.935  c-0.78,0-1.413,0.633-1.413,1.413s0.633,1.413,1.413,1.413h1.935c0.78,0,1.413-0.633,1.413-1.413S19.622,74.162,18.841,74.162z   M18.841,80.984h-1.935c-0.78,0-1.413,0.633-1.413,1.413s0.633,1.413,1.413,1.413h1.935c0.78,0,1.413-0.633,1.413-1.413  S19.622,80.984,18.841,80.984z M19.165,87.806H17.23c-0.78,0-1.413,0.633-1.413,1.413s0.633,1.413,1.413,1.413h1.935  c0.78,0,1.413-0.633,1.413-1.413S19.946,87.806,19.165,87.806z M94.043,9.6v20.467c0,3.606-6.239,5.385-12.504,5.617v4.786  c0,0.637-0.426,1.195-1.04,1.363l-9.012,2.47c0.317,0.259,0.52,0.653,0.52,1.095v7.207c0,0.442-0.203,0.835-0.52,1.095l9.012,2.47  c0.614,0.168,1.04,0.726,1.04,1.363v4.786c6.265,0.232,12.504,2.011,12.504,5.617V88.4c0,3.877-7.214,5.643-13.917,5.643  c-6.703,0-13.917-1.766-13.917-5.643V67.934c0-3.606,6.239-5.385,12.504-5.617v-3.708L67.624,55.57  c-0.414,1.175-0.937,2.308-1.57,3.39l1.763,1.763c0.265,0.265,0.414,0.624,0.414,0.999c0,0.375-0.149,0.734-0.414,0.999  l-5.096,5.096c-0.552,0.552-1.446,0.552-1.998,0l-1.763-1.763c-1.551,0.909-3.206,1.595-4.943,2.049v2.492  c0,0.78-0.633,1.413-1.413,1.413h-7.207c-0.78,0-1.413-0.633-1.413-1.413v-2.492c-1.736-0.454-3.391-1.14-4.942-2.049l-1.763,1.763  c-0.265,0.265-0.624,0.414-0.999,0.414s-0.734-0.149-0.999-0.414l-5.096-5.096c-0.552-0.552-0.552-1.447,0-1.998l1.763-1.763  c-0.634-1.081-1.156-2.215-1.57-3.39l-11.089,3.039v3.708c6.265,0.232,12.504,2.011,12.504,5.617h0c0,0.002,0,0.004,0,0.006V88.4  c0,3.877-7.214,5.643-13.917,5.643S3.957,92.277,3.957,88.4V67.934c0-3.606,6.239-5.385,12.504-5.617v-4.786  c0-0.637,0.426-1.195,1.04-1.363l9.012-2.47c-0.317-0.259-0.52-0.653-0.52-1.095v-7.207c0-0.442,0.203-0.836,0.52-1.095l-9.012-2.47  c-0.614-0.168-1.04-0.726-1.04-1.363v-4.786c-6.265-0.232-12.504-2.011-12.504-5.617V9.6c0-3.877,7.214-5.643,13.917-5.643  S31.791,5.723,31.791,9.6h0c0,0.002,0,0.004,0,0.006v20.461c0,3.606-6.239,5.385-12.504,5.617v3.708l11.089,3.039  c0.414-1.175,0.937-2.308,1.57-3.389l-1.763-1.763c-0.265-0.265-0.414-0.624-0.414-0.999c0-0.375,0.149-0.734,0.414-0.999  l5.097-5.096c0.552-0.552,1.447-0.552,1.998,0l1.763,1.763c1.551-0.909,3.206-1.595,4.943-2.049v-2.492  c0-0.78,0.633-1.413,1.413-1.413h7.207c0.78,0,1.413,0.633,1.413,1.413v2.492c1.736,0.454,3.391,1.14,4.942,2.049l1.763-1.763  c0.265-0.265,0.624-0.414,0.999-0.414s0.734,0.149,0.999,0.414l5.096,5.096c0.552,0.552,0.552,1.447,0,1.998l-1.763,1.763  c0.634,1.081,1.156,2.214,1.57,3.389l11.089-3.039v-3.708c-6.265-0.232-12.504-2.011-12.504-5.617V9.6  c0-3.877,7.214-5.643,13.917-5.643C86.829,3.957,94.043,5.723,94.043,9.6z M6.783,9.6c0,0.121,0.47,0.897,2.702,1.652  c2.22,0.751,5.199,1.164,8.389,1.164s6.169-0.413,8.389-1.164c2.224-0.752,2.698-1.525,2.702-1.651V9.6  c0-0.121-0.47-0.897-2.702-1.652c-2.22-0.751-5.199-1.164-8.389-1.164s-6.169,0.413-8.389,1.164C7.253,8.702,6.783,9.478,6.783,9.6z   M6.783,16.422c0,0.121,0.47,0.897,2.702,1.652c2.22,0.751,5.199,1.164,8.389,1.164s6.169-0.413,8.389-1.164  c2.232-0.755,2.702-1.531,2.702-1.652v-3.233c-2.715,1.395-6.998,2.054-11.091,2.054c-4.093,0-8.375-0.658-11.091-2.054V16.422z   M6.783,23.244c0,0.121,0.47,0.897,2.702,1.652c2.22,0.751,5.199,1.164,8.389,1.164s6.169-0.413,8.389-1.164  c2.232-0.755,2.702-1.531,2.702-1.652v-3.233c-2.715,1.395-6.998,2.054-11.091,2.054s-8.375-0.658-11.091-2.054V23.244z   M9.485,31.719c2.22,0.751,5.199,1.164,8.389,1.164s6.169-0.413,8.389-1.164c2.232-0.755,2.702-1.531,2.702-1.652v-3.233  c-2.715,1.395-6.998,2.054-11.091,2.054s-8.375-0.658-11.091-2.054v3.233C6.783,30.188,7.253,30.964,9.485,31.719z M28.964,88.4  v-3.233c-2.715,1.395-6.998,2.054-11.091,2.054s-8.375-0.658-11.091-2.054V88.4c0,0.121,0.47,0.897,2.702,1.652  c2.22,0.751,5.199,1.164,8.389,1.164s6.169-0.413,8.389-1.164C28.495,89.298,28.964,88.522,28.964,88.4z M28.964,81.578v-3.233  c-2.715,1.395-6.998,2.054-11.091,2.054s-8.375-0.658-11.091-2.054v3.233c0,0.121,0.47,0.897,2.702,1.652  c2.22,0.751,5.199,1.164,8.389,1.164s6.169-0.413,8.389-1.164C28.495,82.475,28.964,81.7,28.964,81.578z M28.964,74.756v-3.233  c-2.715,1.395-6.998,2.054-11.091,2.054c-4.093,0-8.375-0.658-11.091-2.054v3.233c0,0.121,0.47,0.897,2.702,1.652  c2.22,0.751,5.199,1.164,8.389,1.164s6.169-0.413,8.389-1.164C28.495,75.653,28.964,74.877,28.964,74.756z M19.287,65.146v2.434  c0,0.78-0.633,1.413-1.413,1.413s-1.413-0.633-1.413-1.413v-2.434c-2.649,0.104-5.088,0.497-6.976,1.136  c-2.232,0.755-2.702,1.531-2.702,1.652c0,0.121,0.47,0.897,2.702,1.652c2.22,0.751,5.199,1.164,8.389,1.164s6.169-0.413,8.389-1.164  c2.224-0.752,2.698-1.525,2.702-1.651v-0.002c0-0.121-0.47-0.897-2.702-1.652C24.374,65.643,21.936,65.249,19.287,65.146z   M91.217,88.4v-3.233c-2.715,1.395-6.998,2.054-11.091,2.054c-4.093,0-8.376-0.658-11.091-2.054V88.4  c0,0.121,0.47,0.897,2.702,1.652c2.22,0.751,5.199,1.164,8.389,1.164c3.19,0,6.169-0.413,8.389-1.164  C90.747,89.298,91.217,88.522,91.217,88.4z M91.217,81.578v-3.233c-2.715,1.395-6.998,2.054-11.091,2.054  c-4.093,0-8.376-0.658-11.091-2.054v3.233c0,0.121,0.47,0.897,2.702,1.652c2.22,0.751,5.199,1.164,8.389,1.164  c3.19,0,6.169-0.413,8.389-1.164C90.747,82.475,91.217,81.7,91.217,81.578z M91.217,74.756v-3.233  c-2.715,1.395-6.998,2.054-11.091,2.054s-8.375-0.658-11.091-2.054v3.233c0,0.121,0.47,0.897,2.702,1.652  c2.22,0.751,5.199,1.164,8.389,1.164c3.19,0,6.169-0.413,8.389-1.164C90.747,75.653,91.217,74.877,91.217,74.756z M81.539,65.146  v2.434c0,0.78-0.633,1.413-1.413,1.413s-1.413-0.633-1.413-1.413v-2.434c-2.649,0.104-5.088,0.497-6.976,1.136  c-2.232,0.755-2.702,1.531-2.702,1.652c0,0.121,0.47,0.897,2.702,1.652c2.22,0.751,5.199,1.164,8.389,1.164  c3.19,0,6.169-0.413,8.389-1.164c2.232-0.755,2.702-1.531,2.702-1.652c0-0.121-0.47-0.897-2.702-1.652  C86.627,65.643,84.189,65.249,81.539,65.146z M64.819,61.722l-1.559-1.559c-0.476-0.477-0.55-1.223-0.176-1.784  c1.232-1.846,2.076-3.882,2.508-6.052c0.132-0.661,0.712-1.137,1.386-1.137h2.203V46.81h-2.203c-0.674,0-1.254-0.476-1.386-1.137  c-0.433-2.17-1.277-4.207-2.508-6.051c-0.374-0.561-0.3-1.307,0.176-1.784l1.559-1.559l-3.098-3.098l-1.559,1.559  c-0.477,0.476-1.223,0.55-1.784,0.176c-1.846-1.232-3.882-2.076-6.051-2.508c-0.661-0.132-1.137-0.712-1.137-1.386v-2.203H46.81  v2.203c0,0.674-0.476,1.254-1.137,1.386c-2.171,0.433-4.207,1.277-6.052,2.508c-0.561,0.374-1.307,0.3-1.784-0.176l-1.559-1.559  l-3.098,3.098l1.559,1.559c0.476,0.476,0.55,1.223,0.176,1.784c-1.232,1.846-2.076,3.882-2.508,6.052  c-0.132,0.661-0.712,1.137-1.386,1.137h-2.203v4.381h2.203c0.674,0,1.254,0.476,1.386,1.137c0.433,2.17,1.277,4.206,2.508,6.052  c0.374,0.56,0.3,1.307-0.176,1.784l-1.559,1.559l3.098,3.098l1.559-1.559c0.477-0.477,1.223-0.55,1.784-0.176  c1.846,1.232,3.882,2.076,6.052,2.508c0.661,0.132,1.137,0.712,1.137,1.386v2.203h4.381v-2.203c0-0.674,0.476-1.254,1.137-1.386  c2.171-0.433,4.207-1.277,6.052-2.508c0.561-0.374,1.307-0.3,1.784,0.176l1.559,1.559L64.819,61.722z M69.035,9.6  c0,0.121,0.47,0.897,2.702,1.652c2.22,0.751,5.199,1.164,8.389,1.164c3.19,0,6.169-0.413,8.389-1.164  c2.232-0.755,2.702-1.531,2.702-1.652c0-0.121-0.47-0.897-2.702-1.652c-2.22-0.751-5.199-1.164-8.389-1.164  c-3.19,0-6.169,0.413-8.389,1.164C69.505,8.702,69.035,9.478,69.035,9.6z M91.217,30.066v-3.233  c-2.715,1.395-6.998,2.054-11.091,2.054c-4.093,0-8.376-0.658-11.091-2.054v3.233c0,0.121,0.47,0.897,2.702,1.652  c2.22,0.751,5.199,1.164,8.389,1.164c3.19,0,6.169-0.413,8.389-1.164C90.747,30.963,91.217,30.188,91.217,30.066z M91.217,23.244  v-3.233c-2.715,1.395-6.998,2.054-11.091,2.054c-4.093,0-8.376-0.658-11.091-2.054v3.233c0,0.121,0.47,0.897,2.702,1.652  c2.22,0.751,5.199,1.164,8.389,1.164c3.19,0,6.169-0.413,8.389-1.164C90.747,24.141,91.217,23.366,91.217,23.244z M91.217,16.422  v-3.233c-2.715,1.395-6.998,2.054-11.091,2.054s-8.375-0.658-11.091-2.054v3.233c0,0.121,0.47,0.897,2.702,1.652  c2.22,0.751,5.199,1.164,8.389,1.164c3.19,0,6.169-0.413,8.389-1.164C90.747,17.319,91.217,16.543,91.217,16.422z M81.094,15.828  h-1.935c-0.78,0-1.413,0.633-1.413,1.413s0.633,1.413,1.413,1.413h1.935c0.78,0,1.413-0.633,1.413-1.413  S81.874,15.828,81.094,15.828z M81.094,22.65h-1.935c-0.78,0-1.413,0.633-1.413,1.413s0.633,1.413,1.413,1.413h1.935  c0.78,0,1.413-0.633,1.413-1.413S81.874,22.65,81.094,22.65z M81.418,29.472h-1.935c-0.78,0-1.413,0.633-1.413,1.413  c0,0.78,0.633,1.413,1.413,1.413h1.935c0.78,0,1.413-0.633,1.413-1.413C82.831,30.104,82.198,29.472,81.418,29.472z M16.906,18.654  h1.935c0.78,0,1.413-0.633,1.413-1.413s-0.633-1.413-1.413-1.413h-1.935c-0.78,0-1.413,0.633-1.413,1.413  S16.126,18.654,16.906,18.654z M16.906,25.476h1.935c0.78,0,1.413-0.633,1.413-1.413s-0.633-1.413-1.413-1.413h-1.935  c-0.78,0-1.413,0.633-1.413,1.413S16.126,25.476,16.906,25.476z M20.578,30.885c0-0.78-0.633-1.413-1.413-1.413H17.23  c-0.78,0-1.413,0.633-1.413,1.413c0,0.78,0.633,1.413,1.413,1.413h1.935C19.946,32.298,20.578,31.665,20.578,30.885z M62.352,49  c0,7.362-5.99,13.352-13.352,13.352S35.648,56.363,35.648,49S41.638,35.648,49,35.648S62.352,41.638,62.352,49z M59.526,49  c0-5.804-4.722-10.526-10.526-10.526S38.474,43.196,38.474,49S43.196,59.526,49,59.526S59.526,54.804,59.526,49z"/><text x="0" y="113" fill="#000000" font-size="5px" font-weight="bold" font-family="'Helvetica Neue', Helvetica, Arial-Unicode, Arial, Sans-serif">Created by MUHAMMAT SUKIRMAN</text><text x="0" y="118" fill="#000000" font-size="5px" font-weight="bold" font-family="'Helvetica Neue', Helvetica, Arial-Unicode, Arial, Sans-serif">from the Noun Project</text></svg>