<svg xmlns="http://www.w3.org/2000/svg" data-name="Layer 1" viewBox="-5.0 -10.0 110.0 135.0" x="0px" y="0px"><defs><style>.cls-1{fill-rule:evenodd;}</style></defs><title>a</title><path class="cls-1" d="M84.955,62.779a3.394,3.394,0,0,0-2.609-1.042,3.84,3.84,0,0,0-2.826,1.107,4.2,4.2,0,0,0-1.041,2.991,6.115,6.115,0,0,0,1.173,3.724,3.012,3.012,0,0,0,5.09,0,6.122,6.122,0,0,0,1.173-3.724,4.464,4.464,0,0,0-.96-3.056Zm-2.609-3.1a5.393,5.393,0,0,1,4.134,1.732,6.438,6.438,0,0,1,1.489,4.42,8.179,8.179,0,0,1-1.607,4.976,5.04,5.04,0,0,1-8.331,0,8.185,8.185,0,0,1-1.606-4.976,6.186,6.186,0,0,1,1.61-4.4,5.87,5.87,0,0,1,4.311-1.749ZM93.819,90.249H70.574a1.027,1.027,0,0,1-1.027-1.027V82.529a7.716,7.716,0,0,1,7.7-7.7h9.905a7.716,7.716,0,0,1,7.7,7.7v6.693a1.027,1.027,0,0,1-1.027,1.027ZM71.6,88.2h3.066V85.757a1.027,1.027,0,0,1,2.054,0V88.2H87.673V85.757a1.027,1.027,0,0,1,2.054,0V88.2h3.065V82.529a5.661,5.661,0,0,0-5.643-5.642H77.244A5.663,5.663,0,0,0,71.6,82.529V88.2ZM20.562,62.779a3.394,3.394,0,0,0-2.609-1.042,3.844,3.844,0,0,0-2.827,1.107,4.2,4.2,0,0,0-1.04,2.991,6.115,6.115,0,0,0,1.173,3.724,3.264,3.264,0,0,0,2.544,1.4,3.264,3.264,0,0,0,2.545-1.4,6.115,6.115,0,0,0,1.173-3.724,4.464,4.464,0,0,0-.959-3.056Zm-2.609-3.1a5.392,5.392,0,0,1,4.133,1.732,6.433,6.433,0,0,1,1.489,4.42,8.185,8.185,0,0,1-1.606,4.976,5.274,5.274,0,0,1-4.166,2.2,5.274,5.274,0,0,1-4.165-2.2,8.185,8.185,0,0,1-1.606-4.976,6.181,6.181,0,0,1,1.61-4.4,5.87,5.87,0,0,1,4.311-1.749ZM29.426,90.249H6.181a1.027,1.027,0,0,1-1.027-1.027V82.529a7.716,7.716,0,0,1,7.7-7.7h9.9a7.716,7.716,0,0,1,7.7,7.7v6.693a1.027,1.027,0,0,1-1.027,1.027ZM7.208,88.2h3.065V85.757a1.027,1.027,0,0,1,2.054,0V88.2H23.279V85.757a1.027,1.027,0,1,1,2.054,0V88.2H28.4V82.529a5.663,5.663,0,0,0-5.643-5.642h-9.9a5.661,5.661,0,0,0-5.643,5.642V88.2Zm45.55-25.416a3.393,3.393,0,0,0-2.609-1.042,3.841,3.841,0,0,0-2.826,1.107,4.2,4.2,0,0,0-1.041,2.991,6.122,6.122,0,0,0,1.173,3.724,3.012,3.012,0,0,0,5.09,0,6.115,6.115,0,0,0,1.173-3.724,4.464,4.464,0,0,0-.96-3.056Zm-2.609-3.1a5.393,5.393,0,0,1,4.134,1.732,6.438,6.438,0,0,1,1.489,4.42,8.185,8.185,0,0,1-1.606,4.976,5.04,5.04,0,0,1-8.331,0,8.179,8.179,0,0,1-1.607-4.976,6.182,6.182,0,0,1,1.611-4.4,5.867,5.867,0,0,1,4.31-1.749ZM61.622,90.249H38.378a1.027,1.027,0,0,1-1.027-1.027V82.529a7.716,7.716,0,0,1,7.7-7.7h9.906a7.716,7.716,0,0,1,7.7,7.7v6.693a1.027,1.027,0,0,1-1.027,1.027ZM39.405,88.2H42.47V85.757a1.027,1.027,0,0,1,2.054,0V88.2H55.476V85.757a1.027,1.027,0,0,1,2.054,0V88.2H60.6V82.529a5.661,5.661,0,0,0-5.642-5.642H45.047a5.661,5.661,0,0,0-5.642,5.642V88.2ZM52.849,8.371a3.509,3.509,0,0,0-2.7-1.077,3.968,3.968,0,0,0-2.918,1.143,4.331,4.331,0,0,0-1.075,3.087,6.3,6.3,0,0,0,1.209,3.835,3.116,3.116,0,0,0,5.262,0,6.3,6.3,0,0,0,1.209-3.836,4.609,4.609,0,0,0-.991-3.153Zm-2.7-3.131a5.5,5.5,0,0,1,4.22,1.767,6.572,6.572,0,0,1,1.521,4.517,8.367,8.367,0,0,1-1.642,5.087,5.144,5.144,0,0,1-8.5,0,8.367,8.367,0,0,1-1.642-5.087,6.316,6.316,0,0,1,1.645-4.5,5.994,5.994,0,0,1,4.4-1.785Zm11.768,31.3H38.079a1.027,1.027,0,0,1-1.027-1.027V28.646a7.889,7.889,0,0,1,7.868-7.867H55.08a7.889,7.889,0,0,1,7.868,7.867v6.865a1.027,1.027,0,0,1-1.027,1.027ZM39.106,34.484h3.2V31.957a1.027,1.027,0,0,1,2.054,0v2.527H55.643V31.957a1.027,1.027,0,0,1,2.054,0v2.527h3.2V28.646a5.833,5.833,0,0,0-5.814-5.813H44.92a5.833,5.833,0,0,0-5.814,5.813v5.838Zm-.6,7.163a1.027,1.027,0,0,1,0-2.054H61.5a1.027,1.027,0,1,1,0,2.054Zm0,53.113a1.027,1.027,0,1,1,0-2.054H61.5a1.027,1.027,0,1,1,0,2.054Zm-32.2,0a1.027,1.027,0,1,1,0-2.054H29.3a1.027,1.027,0,1,1,0,2.054Zm64.393,0a1.027,1.027,0,1,1,0-2.054H93.693a1.027,1.027,0,1,1,0,2.054ZM48.973,45.9a1.027,1.027,0,1,1,2.054,0v3.313H82.2a1.027,1.027,0,0,1,1.027,1.027v5.026a1.027,1.027,0,1,1-2.054,0v-4H51.027v2.192a1.027,1.027,0,1,1-2.054,0V51.27H18.83v4a1.027,1.027,0,1,1-2.054,0V50.243A1.027,1.027,0,0,1,17.8,49.216h31.17Z"/><text x="0.0" y="117.5" font-size="5.0" font-weight="bold" font-family="Arbeit Regular, Helvetica, Arial-Unicode, Arial, Sans-serif" fill="#000000">Created by Icon Designer</text><text x="0.0" y="122.5" font-size="5.0" font-weight="bold" font-family="Arbeit Regular, Helvetica, Arial-Unicode, Arial, Sans-serif" fill="#000000">from Noun Project</text></svg>