<svg xmlns="http://www.w3.org/2000/svg" version="1.1" viewBox="-5.0 -10.0 110.0 135.0">
 <path d="m11.062 18.555v13.379c-0.015625 0.64453 0.375 1.2539 1.0117 1.4922l11.918 4.4688c0.35547 0.13281 0.74609 0.13281 1.0977 0l11.918-4.4688c0.63672-0.23828 1.0273-0.84766 1.0156-1.4922v-13.379c0-0.65234-0.40625-1.2344-1.0156-1.4609l-11.918-4.4727c-0.35156-0.12891-0.74219-0.12891-1.0977 0l-11.918 4.4727c-0.60938 0.22656-1.0117 0.80859-1.0117 1.4609zm3.125 12.324 8.793 3.3008v-10.07l-8.793-3.3008zm11.918-6.7695v10.07l8.793-3.3008v-10.07zm-1.5625-8.3555 7.4688 2.8008-7.4688 2.8008-7.4688-2.8008z" fill-rule="evenodd"/>
 <path d="m37.656 41.188h20.359v8.0156c0 0.60938 0.35547 1.1641 0.91016 1.418 0.55078 0.25391 1.207 0.16406 1.668-0.23438l10.734-9.1992h10.664c1.2422 0 2.4336-0.49219 3.3125-1.375 0.87891-0.875 1.375-2.0703 1.375-3.3125v-22.48c0-1.2461-0.49609-2.4375-1.375-3.3164-0.87891-0.87891-2.0703-1.3711-3.3125-1.3711h-44.336c-3.5664-2.9414-8.1367-4.707-13.113-4.707-7.9102 0-14.789 4.4609-18.25 11-1.5234 2.875-2.3867 6.1562-2.3867 9.6328 0 11.391 9.2461 20.637 20.637 20.637 4.9766 0 9.5469-1.7656 13.113-4.707zm3.0664-28.73c2.7891 3.5195 4.457 7.9648 4.457 12.801 0 4.8359-1.668 9.2852-4.457 12.805h18.855c0.86328 0 1.5625 0.69922 1.5625 1.5625v6.1797l8.5938-7.3672c0.28125-0.24219 0.64453-0.375 1.0156-0.375h11.242c0.41406 0 0.8125-0.16406 1.1055-0.45703 0.29297-0.29297 0.45703-0.69141 0.45703-1.1055v-22.48c0-0.41797-0.16406-0.8125-0.45703-1.1055-0.29297-0.29297-0.69141-0.45703-1.1055-0.45703zm-16.18-4.707c9.6641 0 17.512 7.8438 17.512 17.508 0 9.6641-7.8477 17.512-17.512 17.512-9.6641 0-17.512-7.8477-17.512-17.512 0-9.6641 7.8477-17.508 17.512-17.508z" fill-rule="evenodd"/>
 <path d="m50 19.641h6.3867c0.85938 0 1.5625-0.70312 1.5625-1.5625 0-0.86328-0.70312-1.5664-1.5625-1.5664h-6.3867c-0.85938 0-1.5625 0.70312-1.5625 1.5664 0 0.85938 0.70312 1.5625 1.5625 1.5625z" fill-rule="evenodd"/>
 <path d="m62.77 19.641h14.367c0.85938 0 1.5625-0.70312 1.5625-1.5625 0-0.86328-0.70312-1.5664-1.5625-1.5664h-14.367c-0.86328 0-1.5625 0.70312-1.5625 1.5664 0 0.85938 0.69922 1.5625 1.5625 1.5625z" fill-rule="evenodd"/>
 <path d="m50 26.82h27.137c0.86328 0 1.5625-0.69922 1.5625-1.5625 0-0.85937-0.69922-1.5625-1.5625-1.5625h-27.137c-0.85938 0-1.5625 0.70313-1.5625 1.5625 0 0.86328 0.70312 1.5625 1.5625 1.5625z" fill-rule="evenodd"/>
 <path d="m50 34.004h13.566c0.86328 0 1.5625-0.69922 1.5625-1.5625 0-0.86328-0.69922-1.5625-1.5625-1.5625h-13.566c-0.86328 0-1.5625 0.69922-1.5625 1.5625 0 0.86328 0.69922 1.5625 1.5625 1.5625z" fill-rule="evenodd"/>
 <path d="m70.75 34.004h6.3867c0.86328 0 1.5625-0.69922 1.5625-1.5625 0-0.86328-0.69922-1.5625-1.5625-1.5625h-6.3867c-0.85938 0-1.5625 0.69922-1.5625 1.5625 0 0.86328 0.70312 1.5625 1.5625 1.5625z" fill-rule="evenodd"/>
 <path d="m61.977 63.168v13.406c0 0.67969 0.4375 1.2617 1.043 1.4727l11.891 4.4609c0.35156 0.13281 0.74219 0.13281 1.0977 0l11.918-4.4688c0.63672-0.23828 1.0273-0.85156 1.0117-1.4922v-13.379c0-0.65234-0.40234-1.2344-1.0117-1.4648l-11.918-4.4688c-0.35547-0.13281-0.74609-0.13281-1.0977 0l-11.918 4.4688c-0.60938 0.23047-1.0156 0.8125-1.0156 1.4648zm3.125 12.324 8.793 3.2969v-10.07l-8.793-3.2969zm11.918-6.7734v10.07l8.793-3.2969v-10.07zm-1.5625-8.3516 7.4688 2.8008-7.4688 2.8008-7.4688-2.8008z" fill-rule="evenodd"/>
 <path d="m62.344 53.945h-44.336c-1.2422 0-2.4336 0.49219-3.3125 1.3711-0.87891 0.87891-1.375 2.0703-1.375 3.3164v22.48c0 1.2422 0.49609 2.4336 1.375 3.3125 0.87891 0.87891 2.0703 1.375 3.3125 1.375h10.664l10.734 9.1992c0.46094 0.39844 1.1172 0.48828 1.668 0.23438 0.55469-0.25781 0.91016-0.80859 0.91016-1.4219v-8.0117h20.359c3.5664 2.9414 8.1367 4.707 13.113 4.707 11.391 0 20.637-9.2461 20.637-20.637 0-11.387-9.2461-20.637-20.637-20.637-4.9766 0-9.5469 1.7656-13.113 4.7109zm-3.0664 28.73c-2.7891-3.5195-4.457-7.9688-4.457-12.805 0-4.8359 1.668-9.2852 4.457-12.801h-41.27c-0.41406 0-0.8125 0.16406-1.1055 0.45313-0.29297 0.29687-0.45703 0.69141-0.45703 1.1094v22.48c0 0.41406 0.16406 0.80859 0.45703 1.1055 0.29297 0.28906 0.69141 0.45703 1.1055 0.45703h11.242c0.37109 0 0.73438 0.13281 1.0156 0.375l8.5938 7.3672v-6.1797c0-0.86328 0.69922-1.5625 1.5625-1.5625zm16.18-30.316c9.6641 0 17.512 7.8477 17.512 17.512 0 9.6641-7.8477 17.512-17.512 17.512-9.6641 0-17.512-7.8477-17.512-17.512 0-9.6641 7.8477-17.512 17.512-17.512z" fill-rule="evenodd"/>
 <path d="m50 61.125h-6.3867c-0.86328 0-1.5625 0.70312-1.5625 1.5625 0 0.86328 0.69922 1.5625 1.5625 1.5625h6.3867c0.85938 0 1.5625-0.69922 1.5625-1.5625 0-0.85938-0.70312-1.5625-1.5625-1.5625z" fill-rule="evenodd"/>
 <path d="m37.23 61.125h-14.363c-0.86328 0-1.5664 0.70312-1.5664 1.5625 0 0.86328 0.70312 1.5625 1.5664 1.5625h14.363c0.86328 0 1.5625-0.69922 1.5625-1.5625 0-0.85938-0.69922-1.5625-1.5625-1.5625z" fill-rule="evenodd"/>
 <path d="m50 68.309h-27.137c-0.86328 0-1.5625 0.69922-1.5625 1.5625 0 0.86328 0.69922 1.5625 1.5625 1.5625h27.137c0.85938 0 1.5625-0.69922 1.5625-1.5625 0-0.86328-0.70312-1.5625-1.5625-1.5625z" fill-rule="evenodd"/>
 <path d="m50 75.492h-13.566c-0.86328 0-1.5625 0.69922-1.5625 1.5625 0 0.86328 0.69922 1.5625 1.5625 1.5625h13.566c0.86328 0 1.5625-0.69922 1.5625-1.5625 0-0.86328-0.69922-1.5625-1.5625-1.5625z" fill-rule="evenodd"/>
 <path d="m29.246 75.492h-6.3828c-0.86328 0-1.5625 0.69922-1.5625 1.5625 0 0.86328 0.69922 1.5625 1.5625 1.5625h6.3828c0.86328 0 1.5664-0.69922 1.5664-1.5625 0-0.86328-0.70312-1.5625-1.5664-1.5625z" fill-rule="evenodd"/>
<text x="0.0" y="117.5" font-size="5.0" font-weight="bold" font-family="Arbeit Regular, Helvetica, Arial-Unicode, Arial, Sans-serif" fill="#000000">Created by Arif Subekti</text><text x="0.0" y="122.5" font-size="5.0" font-weight="bold" font-family="Arbeit Regular, Helvetica, Arial-Unicode, Arial, Sans-serif" fill="#000000">from Noun Project</text></svg>