<svg xmlns="http://www.w3.org/2000/svg" version="1.1" viewBox="-5.0 -10.0 110.0 135.0">
 <path d="m64.586 8.6719c0.25-0.64453 0.97266-0.96484 1.6172-0.71484 2.9961 1.1562 5.8828 2.6445 8.5742 4.418 0.57812 0.37891 0.73828 1.1562 0.35547 1.7344-0.24219 0.36328-0.64062 0.5625-1.0469 0.5625-0.23438 0-0.47656-0.066406-0.6875-0.20703-2.543-1.6758-5.2656-3.0781-8.0977-4.1719-0.64453-0.25-0.96484-0.97266-0.71484-1.6172zm-36.98 4.9258c0.21875 0 0.4375-0.058594 0.64062-0.17578 2.6133-1.5547 5.3984-2.8281 8.2852-3.7891 0.65625-0.21875 1.0117-0.92578 0.79297-1.582s-0.92578-1.0117-1.582-0.79297c-3.0547 1.0156-6.0078 2.3672-8.7734 4.0156-0.59375 0.35547-0.78906 1.1211-0.43359 1.7148 0.23438 0.39453 0.64844 0.60938 1.0742 0.60938zm65.598 56.016-3.5938 1.875c4.2539-7.8516 6.1016-16.977 5.2227-25.922-0.97656-9.918-5.0898-19.016-11.898-26.305-0.47266-0.50391-1.2656-0.53125-1.7695-0.058594-0.50391 0.47266-0.53125 1.2656-0.058593 1.7695 12.504 13.387 14.965 33.445 6.2617 49.402l-0.83203-4.0898c-0.13672-0.67578-0.80078-1.1133-1.4766-0.97656-0.67578 0.13672-1.1133 0.79688-0.97656 1.4766l1.582 7.7812c0.078126 0.38672 0.33203 0.71094 0.6875 0.87891 0.17188 0.082032 0.35547 0.12109 0.53906 0.12109 0.19922 0 0.39844-0.046875 0.57812-0.14062l6.8867-3.5938c0.61328-0.32031 0.85156-1.0742 0.53125-1.6875-0.32031-0.61328-1.0742-0.85156-1.6875-0.53125zm-46.789-62.012c3.0391-0.26172 6.1016-0.19141 9.1055 0.19922 0.054688 0.007813 0.10938 0.011719 0.16406 0.011719 0.61719 0 1.1562-0.46094 1.2383-1.0898 0.089844-0.68359-0.39453-1.3125-1.0781-1.4023-3.1797-0.41406-6.4258-0.48437-9.6445-0.21094-0.6875 0.058594-1.1992 0.66406-1.1406 1.3516s0.66406 1.1992 1.3516 1.1406zm7.168 84.797c-3.0391 0.25781-6.1016 0.19141-9.1055-0.19922-0.6875-0.089844-1.3125 0.39453-1.4023 1.0781-0.089844 0.68359 0.39453 1.3125 1.0781 1.4023 1.9141 0.25 3.8555 0.375 5.7969 0.375 1.2812 0 2.5664-0.054688 3.8477-0.16406 0.6875-0.058594 1.1992-0.66406 1.1406-1.3516s-0.66406-1.2031-1.3516-1.1406zm-40.953-62.77 0.83203 4.0898c0.13672 0.67578 0.79687 1.1133 1.4766 0.97656 0.67578-0.13672 1.1133-0.79687 0.97656-1.4766l-1.582-7.7812c-0.078125-0.38672-0.33203-0.71094-0.6875-0.87891-0.35547-0.16797-0.76953-0.16016-1.1172 0.019531l-6.8867 3.5938c-0.61328 0.32031-0.85156 1.0742-0.53125 1.6875s1.0742 0.85156 1.6875 0.53125l3.5938-1.875c-4.2539 7.8516-6.1055 16.977-5.2227 25.922 0.97656 9.918 5.0898 19.016 11.898 26.305 0.24609 0.26562 0.57812 0.39844 0.91406 0.39844 0.30469 0 0.61328-0.11328 0.85547-0.33594 0.50391-0.47266 0.53125-1.2656 0.058593-1.7695-12.504-13.387-14.965-33.445-6.2617-49.402zm22.07 60.082c-2.832-1.0938-5.5547-2.4961-8.0977-4.1719-0.57812-0.37891-1.3516-0.22266-1.7344 0.35547-0.37891 0.57812-0.22266 1.3516 0.35547 1.7344 2.6914 1.7734 5.5742 3.2617 8.5742 4.418 0.14844 0.058594 0.30078 0.085937 0.44922 0.085937 0.50391 0 0.97656-0.30469 1.168-0.80078 0.25-0.64453-0.070312-1.3672-0.71484-1.6172zm37.055-3.1328c-2.6133 1.5547-5.3984 2.8281-8.2852 3.7891-0.65625 0.21875-1.0117 0.92578-0.79297 1.582 0.17578 0.52344 0.66406 0.85547 1.1875 0.85547 0.13281 0 0.26562-0.019532 0.39453-0.0625 3.0547-1.0156 6.0078-2.3672 8.7734-4.0156 0.59375-0.35547 0.78906-1.1211 0.43359-1.7148-0.35547-0.59375-1.1211-0.78906-1.7148-0.43359zm12.34-33.449c0 1.0547-0.71484 1.9805-1.7344 2.2461l-3.0625 0.80469-0.83203 3.1094 2.2578 2.2305c0.75 0.74219 0.90625 1.9023 0.37891 2.8164l-3.1367 5.418c-0.52734 0.91406-1.6094 1.3555-2.625 1.0781l-3.0547-0.83594-2.2773 2.2773 0.83594 3.0547c0.27734 1.0195-0.16406 2.0977-1.0781 2.625l-5.418 3.1367c-0.91406 0.52734-2.0742 0.375-2.8164-0.37891l-2.2305-2.2578-3.1094 0.83594-0.80469 3.0625c-0.26562 1.0195-1.1914 1.7344-2.2461 1.7344h-6.2617c-1.0547 0-1.9805-0.71484-2.2461-1.7344l-0.80469-3.0625-3.1094-0.83594-2.2305 2.2578c-0.74219 0.75-1.9023 0.90625-2.8164 0.37891l-5.4219-3.1367c-0.91406-0.52734-1.3555-1.6094-1.0781-2.625l0.83594-3.0547-2.2773-2.2773-3.0547 0.83594c-1.0195 0.27734-2.0977-0.16406-2.625-1.0781l-3.1367-5.418c-0.52734-0.91406-0.375-2.0742 0.37891-2.8164l2.2578-2.2305-0.83203-3.1094-3.0625-0.80469c-1.0195-0.26953-1.7344-1.1914-1.7344-2.2461v-6.2617c0-1.0547 0.71484-1.9805 1.7344-2.2461l3.0625-0.80469 0.83203-3.1094-2.2578-2.2305c-0.75391-0.74219-0.90625-1.9023-0.37891-2.8164l3.1367-5.418c0.52734-0.91406 1.6094-1.3555 2.625-1.0781l3.0547 0.83594 2.2773-2.2773-0.83594-3.0547c-0.27734-1.0195 0.16406-2.0977 1.0781-2.625l5.418-3.1367c0.91406-0.52734 2.0742-0.375 2.8164 0.37891l2.2305 2.2578 3.1094-0.83594 0.80469-3.0625c0.26953-1.0234 1.1914-1.7344 2.2461-1.7344h6.2617c1.0547 0 1.9805 0.71484 2.2461 1.7344l0.80469 3.0625 3.1094 0.83594 2.2305-2.2578c0.74219-0.75 1.9023-0.90625 2.8164-0.37891l5.4219 3.1367c0.91406 0.52734 1.3555 1.6094 1.0781 2.625l-0.83594 3.0547 2.2773 2.2773 3.0547-0.83594c1.0156-0.28125 2.0977 0.16406 2.625 1.0781l3.1367 5.418c0.52734 0.91406 0.375 2.0742-0.37891 2.8164l-2.2578 2.2305 0.83203 3.1094 3.0625 0.80469c1.0195 0.26953 1.7344 1.1914 1.7344 2.2461zm-2.5039-6.125-3.6328-0.95312c-0.43359-0.11328-0.77344-0.45312-0.89062-0.88672l-1.2109-4.5156c-0.11719-0.43359 0.007812-0.89844 0.32812-1.2148l2.6758-2.6445-2.9961-5.1797-3.625 0.99219c-0.43359 0.11719-0.89844-0.003906-1.2148-0.32031l-3.3047-3.3047c-0.31641-0.31641-0.44141-0.78125-0.32031-1.2148l0.99219-3.625-5.1797-2.9961-2.6445 2.6758c-0.31641 0.32031-0.78125 0.44531-1.2148 0.32812l-4.5156-1.2109c-0.43359-0.11719-0.77344-0.45703-0.88672-0.89062l-0.95312-3.6367h-5.9844l-0.95312 3.6328c-0.11328 0.43359-0.45312 0.77344-0.88672 0.89063l-4.5156 1.2109c-0.43359 0.11719-0.89844-0.007813-1.2148-0.32812l-2.6445-2.6758-5.1797 2.9961 0.99219 3.625c0.11719 0.43359-0.003906 0.89844-0.32031 1.2148l-3.3047 3.3047c-0.31641 0.31641-0.78125 0.44141-1.2148 0.32031l-3.625-0.99219-2.9961 5.1797 2.6758 2.6445c0.32031 0.31641 0.44531 0.77734 0.32812 1.2148l-1.2109 4.5156c-0.11719 0.43359-0.45703 0.77344-0.89062 0.88672l-3.6328 0.95312v5.9844l3.6328 0.95312c0.43359 0.11328 0.77344 0.45312 0.89062 0.88672l1.2109 4.5156c0.11719 0.43359-0.007813 0.89844-0.32812 1.2148l-2.6758 2.6445 2.9961 5.1797 3.625-0.99219c0.43359-0.11719 0.89844 0.003906 1.2148 0.32031l3.3047 3.3047c0.31641 0.31641 0.44141 0.78125 0.32031 1.2148l-0.99219 3.625 5.1797 2.9961 2.6445-2.6758c0.31641-0.32031 0.78125-0.44531 1.2148-0.32812l4.5156 1.2109c0.43359 0.11719 0.77344 0.45703 0.88672 0.89062l0.95312 3.6328h5.9844l0.95312-3.6367c0.11328-0.43359 0.45312-0.77344 0.88672-0.89062l4.5156-1.2109c0.43359-0.11719 0.89844 0.007812 1.2148 0.32812l2.6445 2.6758 5.1797-2.9961-0.99219-3.625c-0.11719-0.43359 0.003906-0.89844 0.32031-1.2148l3.3047-3.3047c0.31641-0.31641 0.78125-0.44141 1.2148-0.32031l3.625 0.99219 2.9961-5.1797-2.6758-2.6445c-0.32031-0.31641-0.44531-0.77734-0.32812-1.2148l1.2109-4.5156c0.11719-0.43359 0.45703-0.77344 0.89062-0.88672l3.6328-0.95312v-5.9844zm-14.945 2.9922c0 9.1797-7.4688 16.648-16.648 16.648-9.1797 0-16.648-7.4688-16.648-16.648 0-9.1797 7.4688-16.648 16.648-16.648 9.1797 0 16.648 7.4688 16.648 16.648zm-2.5039 0c0-7.8008-6.3438-14.145-14.145-14.145-7.8008 0-14.145 6.3438-14.145 14.145 0 7.8008 6.3438 14.145 14.145 14.145 7.8008 0 14.145-6.3438 14.145-14.145zm-12.48-0.78516c-0.44141-0.125-0.91406-0.23828-1.3672-0.34375-1.2344-0.29297-2.5117-0.59375-3.2422-1.1602-0.50391-0.39062-0.78516-0.85156-0.82031-1.3398-0.03125-0.44922 0.15234-0.91406 0.52734-1.3008 0.92969-0.96484 3.1914-1.332 5.0469-0.82031 0.57812 0.16016 1.9492 0.65234 2.2031 1.7812 0.15234 0.67578 0.82422 1.0977 1.4961 0.94141 0.67578-0.15234 1.0977-0.82422 0.94141-1.4961-0.39062-1.7188-1.8398-3.043-3.9766-3.6367-0.38672-0.10547-0.79688-0.1875-1.2188-0.24219v-1.3711c0-0.69141-0.55859-1.25-1.25-1.25s-1.25 0.55859-1.25 1.25v1.375c-1.4531 0.19531-2.8477 0.74219-3.7969 1.7344-0.87109 0.90625-1.3008 2.0508-1.2188 3.2188 0.085937 1.1953 0.72266 2.3086 1.7852 3.1367 1.1602 0.90234 2.7773 1.2812 4.2031 1.6211 0.44922 0.10547 0.875 0.20703 1.2617 0.31641 1.4883 0.42188 2.5078 1.0156 2.8672 1.6641 0.11328 0.20703 0.24609 0.55469 0.066407 1.168-0.26562 0.91016-1.9453 1.5781-3.8203 1.5312-1.8008-0.050781-3.7773-0.77344-4.1289-2.2812-0.15625-0.67188-0.82812-1.0898-1.5039-0.93359-0.67188 0.15625-1.0938 0.82812-0.93359 1.5039 0.5 2.1445 2.4922 3.6758 5.2227 4.1016v1.4062c0 0.69141 0.55859 1.25 1.25 1.25s1.25-0.55859 1.25-1.25v-1.3359c2.2578-0.22656 4.4727-1.2539 5.0664-3.2852 0.32031-1.1016 0.22656-2.168-0.28125-3.082-0.70312-1.2734-2.1758-2.2344-4.3711-2.8594zm19.84 0.78516c0 11.859-9.6484 21.508-21.508 21.508-11.859 0-21.508-9.6484-21.508-21.508s9.6484-21.508 21.508-21.508c11.859 0 21.508 9.6484 21.508 21.508zm-2.5039 0c0-10.48-8.5234-19.004-19.004-19.004-10.48 0-19.004 8.5234-19.004 19.004 0 10.48 8.5234 19.004 19.004 19.004 10.48 0 19.004-8.5234 19.004-19.004z"/>
<text x="0.0" y="117.5" font-size="5.0" font-weight="bold" font-family="Arbeit Regular, Helvetica, Arial-Unicode, Arial, Sans-serif" fill="#000000">Created by Fina Arfiana</text><text x="0.0" y="122.5" font-size="5.0" font-weight="bold" font-family="Arbeit Regular, Helvetica, Arial-Unicode, Arial, Sans-serif" fill="#000000">from Noun Project</text></svg>