<svg xmlns="http://www.w3.org/2000/svg" version="1.1" viewBox="-5.0 -10.0 110.0 135.0">
 <path d="m16.703 80.156c-0.96875-1.0703-1.875-2.1719-2.7305-3.3242-0.26953-0.36719-0.30469-0.85938-0.085937-1.2656l3.207-5.8516c-1.9336-3.2305-3.3828-6.7266-4.3008-10.383l-6.4141-1.875c-0.44141-0.125-0.76172-0.5-0.83203-0.94922-0.62891-4.3164-0.62891-8.6953 0-13.012 0.066406-0.44922 0.39062-0.82422 0.83203-0.95312l6.4141-1.875c0.91797-3.6562 2.3672-7.1523 4.3008-10.383l-3.207-5.8516c-0.21875-0.40625-0.1875-0.89844 0.085937-1.2617 2.6055-3.4961 5.6992-6.6016 9.1953-9.2031 0.375-0.27344 0.86328-0.30469 1.2656-0.085938l5.8594 3.207c3.2305-1.9336 6.7266-3.3828 10.375-4.3008l1.875-6.4023c0.12891-0.44141 0.5-0.76562 0.95703-0.83203 4.3086-0.63672 8.6953-0.63672 13.004 0 0.45703 0.066406 0.83203 0.39062 0.95703 0.83203l1.875 6.4023c3.6484 0.91406 7.1484 2.3672 10.375 4.3008l5.8594-3.207c0.39844-0.21875 0.89063-0.1875 1.2656 0.085938 3.4961 2.6016 6.5898 5.707 9.1953 9.2031 0.26953 0.36328 0.3125 0.85547 0.09375 1.2617l-3.2148 5.8516c1.9336 3.2305 3.3828 6.7266 4.3008 10.383l6.4141 1.875c0.44141 0.12891 0.76172 0.5 0.83203 0.95312 0.62891 4.3164 0.62891 8.6953 0 13.012-0.066406 0.44922-0.39062 0.82422-0.83203 0.94922l-6.4141 1.875c-0.91797 3.6562-2.3672 7.1484-4.3008 10.383l3.2148 5.8516c0.21875 0.40625 0.17969 0.89844-0.09375 1.2656-0.85547 1.1523-1.7656 2.2578-2.7227 3.3242 2.4688 4.0625 3.8086 8.7617 3.8086 13.598 0 0.64453-0.52734 1.1719-1.1797 1.1719l-71.871-0.003906c-0.65234 0-1.1719-0.52734-1.1719-1.1719 0-4.8359 1.332-9.5352 3.8086-13.598zm65.246-2.0117c0.60938-0.6875 1.1875-1.3906 1.7461-2.1133l-3.1719-5.793c-0.20313-0.36719-0.1875-0.82422 0.035156-1.1797 2.1055-3.3672 3.6289-7.0547 4.5312-10.926 0.09375-0.41406 0.40625-0.74609 0.8125-0.86719l6.3281-1.8477c0.46484-3.5977 0.46484-7.2422 0-10.84l-6.3281-1.8477c-0.40625-0.11719-0.72266-0.44922-0.8125-0.86719-0.89844-3.8672-2.4258-7.5586-4.5312-10.926-0.21875-0.35547-0.23828-0.8125-0.035156-1.1797l3.1719-5.793c-2.2148-2.8672-4.793-5.4453-7.668-7.668l-5.7852 3.1719c-0.375 0.20312-0.82422 0.19531-1.1797-0.035156-3.375-2.0938-7.0664-3.6289-10.934-4.5195-0.40625-0.10156-0.73828-0.40625-0.85547-0.81641l-1.8477-6.3359c-3.6055-0.45703-7.2422-0.45703-10.848 0l-1.8477 6.3359c-0.11719 0.40625-0.44922 0.71484-0.85547 0.81641-3.8672 0.89063-7.5586 2.4258-10.926 4.5195-0.36328 0.23047-0.8125 0.23828-1.1875 0.035156l-5.7852-3.1719c-2.875 2.2227-5.4453 4.8008-7.668 7.668l3.1719 5.793c0.20312 0.36328 0.1875 0.82031-0.035157 1.1797-2.1055 3.3672-3.6289 7.0586-4.5312 10.926-0.09375 0.41406-0.40625 0.74609-0.8125 0.86719l-6.3281 1.8477c-0.46484 3.5977-0.46484 7.2422 0 10.84l6.3281 1.8477c0.40625 0.11719 0.72266 0.44922 0.8125 0.86719 0.89844 3.8672 2.4258 7.5586 4.5312 10.926 0.21875 0.35547 0.23828 0.8125 0.035157 1.1797l-3.1719 5.793c0.55859 0.72266 1.1445 1.4258 1.7461 2.1133 0.75391-1.0156 1.5938-1.9922 2.5039-2.8984 1.9102-1.9102 4.0703-3.4883 6.4219-4.707-4.8672-5.4531-7.8359-12.656-7.8359-20.535 0-17.031 13.836-30.859 30.867-30.859s30.859 13.828 30.859 30.859c0 7.8789-2.9609 15.082-7.8359 20.535 2.3477 1.2188 4.5117 2.7969 6.4219 4.707 0.90625 0.90625 1.7461 1.8828 2.5039 2.8984zm2.7891 14.438c-0.28906-5.8945-2.7578-11.484-6.9453-15.684-4.4688-4.4609-10.535-6.9727-16.855-6.9727h-21.875c-6.3203 0-12.383 2.5117-16.844 6.9727-4.1992 4.1992-6.668 9.7891-6.957 15.684zm-24.98-25.008h1.1797c3.418 0 6.7617 0.67188 9.8555 1.9258 4.793-5.0977 7.7188-11.961 7.7188-19.5 0-15.734-12.773-28.516-28.508-28.516-15.742 0-28.516 12.781-28.516 28.516 0 7.5391 2.9336 14.402 7.7188 19.5 3.1055-1.2539 6.4453-1.9258 9.8555-1.9258h1.1797c-6.957-3.5547-11.723-10.797-11.723-19.137 0-11.859 9.6289-21.484 21.484-21.484 11.859 0 21.477 9.625 21.477 21.484 0 8.3398-4.7578 15.582-11.723 19.137zm-9.7539 0c10.559 0 19.137-8.5742 19.137-19.137 0-10.57-8.5742-19.145-19.137-19.145-10.57 0-19.145 8.5742-19.145 19.145 0 10.562 8.5742 19.137 19.145 19.137z"/>
<text x="0.0" y="117.5" font-size="5.0" font-weight="bold" font-family="Arbeit Regular, Helvetica, Arial-Unicode, Arial, Sans-serif" fill="#000000">Created by Arkinasi</text><text x="0.0" y="122.5" font-size="5.0" font-weight="bold" font-family="Arbeit Regular, Helvetica, Arial-Unicode, Arial, Sans-serif" fill="#000000">from Noun Project</text></svg>