<svg xmlns="http://www.w3.org/2000/svg" version="1.1" viewBox="-5.0 -10.0 110.0 135.0">
 <path d="m79.867 86.359v2.7031c0 2.5898-2.0977 4.6875-4.6875 4.6875h-59.375c-2.5859 0-4.6875-2.0977-4.6875-4.6875v-78.125c0-2.5898 2.1016-4.6875 4.6875-4.6875h59.375c2.5898 0 4.6875 2.0977 4.6875 4.6875v49.156c4.3438 1.1758 7.5664 4.9219 8.0195 9.4805 0.34766 3.5 0.74609 7.5 0.97266 9.9375 0.20312 2.043-0.95312 3.9805-2.8477 4.7734-0.003907 0.003906-0.011719 0.007813-0.019531 0.007813-1.9844 0.80078-4.0312 1.4883-6.125 2.0664zm-3.125-26.785v-48.637c0-0.86328-0.69922-1.5625-1.5625-1.5625h-59.375c-0.85938 0-1.5625 0.69922-1.5625 1.5625v78.125c0 0.86328 0.70312 1.5625 1.5625 1.5625h59.375c0.86328 0 1.5625-0.69922 1.5625-1.5625v-1.9297c-11.875 2.5977-24.934 1.707-36.547-2.8438-0.003906-0.003906-0.007812-0.007812-0.015624-0.007812-1.9062-0.77344-3.082-2.6953-2.9062-4.7461 0.20312-2.418 0.53906-6.3711 0.875-9.8477 0.42969-4.9883 4.2031-9.0391 9.1523-9.8242l0.015625-0.003906c2.2227-0.33203 4.4492-0.59375 6.6797-0.78125-2.9453-2.6836-4.8203-6.668-4.8203-11.129 0-8.1133 6.2031-14.652 13.777-14.652s13.777 6.5391 13.777 14.652c0 4.457-1.8672 8.4336-4.8086 11.117 1.6055 0.13281 3.2109 0.30078 4.8203 0.50781zm3.125 23.535c1.6875-0.49219 3.3438-1.0625 4.9531-1.7109 0.62109-0.26953 1-0.90625 0.92969-1.5781v-0.007812c-0.23047-2.4375-0.62891-6.4375-0.97656-9.9336-0.28906-2.9609-2.2227-5.4414-4.9062-6.4961-0.51953-0.20703-1.0664-0.36328-1.6367-0.44922-0.49609-0.074219-0.99219-0.14062-1.4883-0.20703-3.2031-0.42187-6.3945-0.69531-9.582-0.82422-1.3281 0.45312-2.7422 0.69922-4.207 0.69922-1.4609 0-2.8672-0.24609-4.1953-0.69531-3.668 0.15234-7.3242 0.5-10.973 1.043-3.5312 0.5625-6.2227 3.457-6.5273 7.0195v0.015625c-0.33203 3.4688-0.66797 7.4062-0.875 9.8164-0.054687 0.68359 0.33594 1.3242 0.96875 1.582 11.25 4.4062 23.93 5.1992 35.391 2.5469 1.0547-0.24609 2.0938-0.51563 3.125-0.82031zm-13.203-24.352c4.0664-1.6367 6.9414-5.8789 6.9414-10.809 0-6.332-4.7422-11.527-10.652-11.527s-10.652 5.1953-10.652 11.527c0 4.9336 2.8789 9.1797 6.9492 10.812 1.1523 0.46094 2.3984 0.71484 3.7031 0.71484s2.5586-0.25391 3.7109-0.71875zm-30.547-40.473v11.402c0 0.86328-0.69922 1.5625-1.5625 1.5625h-12.5c-0.85938 0-1.5625-0.69922-1.5625-1.5625v-12.5c0-0.47656 0.21875-0.92578 0.58984-1.2188 0.27734-0.22656 0.61719-0.34375 0.97266-0.34375h12.23l2.207-2.5781c0.5625-0.65625 1.5508-0.73047 2.2031-0.17188 0.65625 0.5625 0.73438 1.5508 0.17188 2.2031zm-12.5 3.3594v6.4805h9.375v-6.1953l-3.5 4.0859c-0.30078 0.35547-0.75 0.55469-1.2109 0.54688-0.46484-0.007812-0.90234-0.22266-1.1953-0.58594zm7.9883-2.8945h-6.3008l3.043 3.8008zm4.5117 42.188v12.5c0 0.86328-0.69922 1.5625-1.5625 1.5625h-12.5c-0.85938 0-1.5625-0.69922-1.5625-1.5625v-12.5c0-0.86328 0.70312-1.5625 1.5625-1.5625h12.5c0.86328 0 1.5625 0.69922 1.5625 1.5625zm-3.125 1.5625h-9.375v9.375h9.375zm3.125-23.438v12.496c0 0.86719-0.69922 1.5664-1.5625 1.5664h-12.5c-0.85938 0-1.5625-0.69922-1.5625-1.5664v-12.496c0-0.86328 0.70312-1.5625 1.5625-1.5625h12.5c0.86328 0 1.5625 0.69922 1.5625 1.5625zm-3.125 1.5625h-9.375v9.375h9.375zm10.938-15.625c-0.85938 0-1.5625-0.69922-1.5625-1.5625s0.70312-1.5625 1.5625-1.5625h25c0.86328 0 1.5625 0.69922 1.5625 1.5625s-0.69922 1.5625-1.5625 1.5625zm0-6.25c-0.85938 0-1.5625-0.69922-1.5625-1.5625s0.70312-1.5625 1.5625-1.5625h25c0.86328 0 1.5625 0.69922 1.5625 1.5625s-0.69922 1.5625-1.5625 1.5625zm0 12.5c-0.85938 0-1.5625-0.69922-1.5625-1.5625s0.70312-1.5625 1.5625-1.5625h25c0.86328 0 1.5625 0.69922 1.5625 1.5625s-0.69922 1.5625-1.5625 1.5625z" fill-rule="evenodd"/>
<text x="0.0" y="117.5" font-size="5.0" font-weight="bold" font-family="Arbeit Regular, Helvetica, Arial-Unicode, Arial, Sans-serif" fill="#000000">Created by Waldiz Production</text><text x="0.0" y="122.5" font-size="5.0" font-weight="bold" font-family="Arbeit Regular, Helvetica, Arial-Unicode, Arial, Sans-serif" fill="#000000">from Noun Project</text></svg>