<svg xmlns="http://www.w3.org/2000/svg" xmlns:xlink="http://www.w3.org/1999/xlink" version="1.1" x="0px" y="0px" viewBox="0 0 96 120" style="enable-background:new 0 0 96 96;" xml:space="preserve"><style type="text/css">
	.st0{fill-rule:evenodd;clip-rule:evenodd;}
</style><path class="st0" d="M67.6977768,38.4733849v-3.8291054c0-3.8512344,3.1329727-6.9831219,6.9831085-6.9831219  c3.8512878,0,6.9831772,3.1318874,6.9831772,6.9831219v3.8291054  C77.3289948,40.9685669,72.0355072,40.9674644,67.6977768,38.4733849L67.6977768,38.4733849z M71.2546234,21.6076412  c0-1.8924465,1.5372086-3.4307423,3.4262619-3.4307423c1.8913422,0,3.4284973,1.5382957,3.4284973,3.4307423  c0,1.8923759-1.5371552,3.4306717-3.4284973,3.4306717C72.791832,25.0383129,71.2546234,23.5000172,71.2546234,21.6076412  L71.2546234,21.6076412z M60.6548424,26.3109684c0,4.0172634,1.6998558,7.6471767,4.4167671,10.2036114v-1.8703003  c0-3.8069534,2.2244263-7.0937996,5.4382095-8.6542282c-1.1564636-1.1066818-1.8813095-2.6560078-1.8813095-4.38241  c0-3.3421955,2.715744-6.0535355,6.0523758-6.0535355c3.3388672,0,6.0557785,2.71134,6.0557785,6.0535355  c0,1.7264023-0.7249069,3.2757282-1.8824692,4.38241c3.2148819,1.5604286,5.4359894,4.8472748,5.4359894,8.6542282v1.8703003  c2.7179871-2.5564346,4.4200897-6.186348,4.4200897-10.2036114c0-7.7356548-6.293663-14.0215769-14.0293884-14.0215769  C66.9474564,12.2893915,60.6548424,18.5753136,60.6548424,26.3109684L60.6548424,26.3109684z M71.2988892,65.3324814  c-1.0435944,0.5975876-2.3815613,0.243454-2.9824753-0.7968292c-0.8428497-1.4576797,0.2221069-3.2757607,1.8857727-3.2757607  C72.4283676,61.2598915,73.2214203,64.2292175,71.2988892,65.3324814L71.2988892,65.3324814z M47.9999809,46.9284439  c-2.8718147,0-5.2068863-2.335125-5.2068863-5.2124939c0-2.8662987,2.3350716-5.2013702,5.2068863-5.2013702  c2.8718529,0,5.2069244,2.3350716,5.2069244,5.2013702C53.2069054,44.5933189,50.8718338,46.9284439,47.9999809,46.9284439  L47.9999809,46.9284439z M62.0282478,72.5259018c0,4.0172119-1.700943,7.6471252-4.4189873,10.2035522v-1.8702927  c0-3.8069534-2.2232933-7.0938034-5.4382095-8.6541977c1.1586876-1.1066818,1.8824501-2.656044,1.8824501-4.3824615  c0-3.3421783-2.7157516-6.0535355-6.0535202-6.0535355c-3.3377304,0-6.0535316,2.7113571-6.0535316,6.0535355  c0,1.7264175,0.7237968,3.2757797,1.8824463,4.3824615c-3.2159691,1.549324-5.4381561,4.8472443-5.4381561,8.6541977v1.8702927  c-2.7169075-2.556427-4.4190063-6.1863403-4.4190063-10.2035522c0-7.7357254,6.2925758-14.0216331,14.0282478-14.0216331  C55.7356911,58.5042686,62.0282478,64.7901764,62.0282478,72.5259018L62.0282478,72.5259018z M44.5737038,67.8225021  c0,1.8924484,1.5372124,3.430687,3.4262772,3.430687c1.8891029,0,3.4263153-1.5382385,3.4263153-3.430687  c0-1.8924332-1.5372124-3.4306717-3.4263153-3.4306717C46.1109161,64.3918304,44.5737038,65.930069,44.5737038,67.8225021  L44.5737038,67.8225021z M41.0168571,84.6883011c4.3338242,2.4943924,9.632515,2.494339,13.9662857,0v-3.8291397  c0-3.8512421-3.1330261-6.9831238-6.9831619-6.9831238c-3.8500977,0-6.9831238,3.1318817-6.9831238,6.9831238V84.6883011  L41.0168571,84.6883011z M15.8996935,50.0935287c0-1.206295,0.980525-2.1912308,2.1834402-2.1912308  c1.2029858,0,2.1834927,0.9849358,2.1834927,2.1912308c0,1.1951752-0.9805069,2.1801643-2.1834927,2.1801643  C16.8802185,52.2736931,15.8996935,51.2887039,15.8996935,50.0935287L15.8996935,50.0935287z M30.9283943,36.5145798v-1.8703003  c0-3.8069534-2.2244301-7.0937996-5.4382095-8.6542282c1.1586494-1.1066818,1.8813095-2.6560078,1.8813095-4.38241  c0-3.3421955-2.7157516-6.0535355-6.0523796-6.0535355c-3.3388672,0-6.0546722,2.71134-6.0546722,6.0535355  c0,1.7264023,0.7237453,3.2757282,1.8824482,4.38241c-3.2148647,1.5604286-5.4382086,4.8472748-5.4382086,8.6542282v1.8703003  c-2.7169075-2.5564346-4.4189539-6.186348-4.4189539-10.2036114c0-7.7356548,6.2936621-14.0215769,14.0293865-14.0215769  c7.7334309,0,14.0259895,6.2859221,14.0259895,14.0215769C35.3451042,30.3282318,33.6452484,33.9581451,30.9283943,36.5145798  L30.9283943,36.5145798z M17.8906155,21.6076412c0,1.8923759,1.5371571,3.4306717,3.4284992,3.4306717  c1.8890495,0,3.42626-1.5382957,3.42626-3.4306717c0-1.8924465-1.5372105-3.4307423-3.42626-3.4307423  C19.4277725,18.176899,17.8906155,19.7151947,17.8906155,21.6076412L17.8906155,21.6076412z M14.3348541,38.4733849  c4.3370953,2.4950256,9.6292381,2.494236,13.9673672,0v-3.8291054c0-3.8512344-3.1330242-6.9831219-6.9831066-6.9831219  c-3.8512878,0-6.9842606,3.1318874-6.9842606,6.9831219V38.4733849L14.3348541,38.4733849z M53.8200264,10.5297728  c0.621769-1.0599661,1.9534836-1.3852253,2.9824944-0.796813c1.0413704,0.608654,1.3999672,1.9366589,0.7979164,2.9879923  c-0.9594269,1.6666594-3.4921837,1.3492966-3.997303-0.5311737C53.4503975,11.6253891,53.5300636,11.0388317,53.8200264,10.5297728  L53.8200264,10.5297728z M91.336441,26.3109684c0-9.1854038-7.4712219-16.655489-16.6555557-16.655489  c-9.1820984,0-16.6532478,7.4700851-16.6532478,16.655489c0,2.5675144,0.5820923,4.9911346,1.6201363,7.1712818  l-5.6185951,3.2425842c-3.1348114-3.7887459-8.9233894-3.7904778-12.0572701,0l-5.6196823-3.2425842  c2.8614845-6.0035439,1.872242-13.07868-2.4458046-18.0609722c5.2876778-2.8321915,11.0402412-3.9433384,17.0130043-3.3975267  c0.2120934,2.5095406,2.2952194,4.4045954,4.7830658,4.4045954c1.6633148,0,3.2835197-0.8521605,4.1721535-2.4014702  c1.3258171-2.290844,0.5367432-5.2456379-1.7596169-6.5626283c-2.2963409-1.3280044-5.2434502-0.5422397-6.5692139,1.7596183  c-0.0420914,0.0664139-0.0808067,0.1438942-0.1173325,0.2102909c-6.8504524-0.667119-13.4927826,0.6477356-19.4808502,4.0725594  c-2.8862076-2.4014883-6.5925007-3.8512373-10.6285172-3.8512373c-9.1843348,0-16.6555595,7.4700851-16.6555595,16.655489  c0,9.1854725,7.4712238,16.6555576,16.6555595,16.6555576c5.6816654,0,10.708168-2.8552322,13.7150345-7.2155609  l5.6208191,3.2425804c-1.7081909,4.6146927,1.2172203,9.6255112,6.0324898,10.44701v6.4851341  c-6.6975784,0.5201569-12.294075,5.0243301-14.4211311,11.1442642c-5.0077-3.1208229-9.0072269-7.6692581-11.44524-13.036644  c1.2505245-0.863224,2.0717106-2.3129921,2.0717106-3.9397812c0-2.656044-2.1591187-4.8140755-4.8096638-4.8140755  c-2.6515789,0-4.8096123,2.1580315-4.8096123,4.8140755c0,2.6449432,2.1580334,4.8029594,4.8096123,4.8029594  c0.081892,0,0.1627007,0,0.2456951-0.0110664c2.7501068,6.1863441,7.4058952,11.3987808,13.2535858,14.8405914  C29.850462,79.8686218,37.687027,89.1813889,47.9999809,89.1813889c9.1843185,0,16.6555443-7.4700699,16.6555443-16.6554871  c0-8.7427979-6.769558-15.9251442-15.3418961-16.6002121v-6.4851341c4.8138847-0.8215523,7.7395935-5.8322639,6.0314026-10.44701  l5.6208191-3.2425804c3.6648941,5.3145905,10.2463303,8.2096214,16.8535767,6.9167061  c-0.1847839,5.9650421-2.0949326,11.5980301-5.5665741,16.4231186c-1.3766861-0.6418686-3.0367432-0.6308022-4.4510498,0.1881599  c-2.2952576,1.3280029-3.085434,4.2717857-1.7596207,6.5736427c1.3355026,2.3152695,4.2899475,3.0694427,6.5692291,1.7596664  c2.4145355-1.3874664,3.1150665-4.6101913,1.6290359-6.783947c4.0305023-5.5223427,6.1752777-12.0185585,6.2195435-18.8910027  C86.8034821,39.5800667,91.336441,33.4711838,91.336441,26.3109684z"/><text x="0" y="111" fill="#000000" font-size="5px" font-weight="bold" font-family="'Helvetica Neue', Helvetica, Arial-Unicode, Arial, Sans-serif">Created by gravisio</text><text x="0" y="116" fill="#000000" font-size="5px" font-weight="bold" font-family="'Helvetica Neue', Helvetica, Arial-Unicode, Arial, Sans-serif">from the Noun Project</text></svg>