<svg xmlns="http://www.w3.org/2000/svg" version="1.1" viewBox="-5.0 -10.0 110.0 135.0">
 <path fill="currentColor" d="m79.602 14.262h-3.6289v-3.6289c0-3.2188-2.6211-5.8398-5.8398-5.8398l-40.633-0.003907c-0.28906 0-0.57031 0.12109-0.78125 0.32031l-13.828 13.84c-0.21094 0.21094-0.32031 0.48828-0.32031 0.78125v60.168c0 3.2188 2.6211 5.8398 5.8398 5.8398h3.6289v3.6289c0 3.2188 2.6211 5.8398 5.8398 5.8398l49.723 0.003907c3.2188 0 5.8398-2.6211 5.8398-5.8398v-69.27c-0.011718-3.2227-2.6211-5.8398-5.8398-5.8398zm-51.203-5.7031v6.4414c0 2-1.6289 3.6289-3.6289 3.6289h-6.4414zm-11.629 71.34v-59.07h8c3.2188 0 5.8398-2.6211 5.8398-5.8398v-7.9883h39.52c2 0 3.6289 1.6289 3.6289 3.6289l0.003907 69.27c0 2-1.6289 3.6289-3.6289 3.6289l-49.734 0.003906c-2 0-3.6289-1.6328-3.6289-3.6328zm66.461 9.4727c0 2-1.6289 3.6289-3.6289 3.6289h-49.73c-2 0-3.6289-1.6289-3.6289-3.6289v-3.6289h43.879c3.2188 0 5.8398-2.6211 5.8398-5.8398v-63.434h3.6289c2 0 3.6289 1.6289 3.6289 3.6289v69.273zm-16.449-39.25h-1.7812v-20.582c0-1.0898-0.87891-1.9688-1.9688-1.9688h-4.2305c-1.0898 0-1.9688 0.87891-1.9688 1.9688v20.59h-2.2695v-8.9297c0-1.0898-0.87891-1.9688-1.9688-1.9688h-4.2305c-1.0898 0-1.9688 0.87891-1.9688 1.9688v8.9297h-2.2695l-0.003906-14.77c0-1.0898-0.87891-1.9688-1.9688-1.9688h-4.2305c-1.0898 0-1.9688 0.87891-1.9688 1.9688v14.762h-2.2539v-4.9492c0-1.0898-0.87891-1.9688-1.9688-1.9688l-4.2305-0.003906c-1.0898 0-1.9688 0.87891-1.9688 1.9688v4.9492h-1.7812c-0.60938 0-1.1016 0.48828-1.1016 1.1016 0 0.60938 0.48828 1.1016 1.1016 1.1016h43.031c0.60938 0 1.1016-0.48828 1.1016-1.1016-0.003906-0.60938-0.49219-1.0977-1.1016-1.0977zm-7.7422-20.352h3.7617v20.352h-3.7617zm-10.438 11.66h3.7617v8.6992h-3.7617zm-10.43-5.8281h3.7617v14.52h-3.7617zm-10.441 9.8086h3.7617v4.7109h-3.7617zm1.8789-6.1992c1.9883 0 3.6211-1.6211 3.6211-3.6211 0-0.67188-0.19141-1.2812-0.51172-1.8203l5.8594-6.5391c0.44922 0.19922 0.94922 0.32031 1.4688 0.32031 0.94922 0 1.8086-0.37891 2.4609-0.98047l4.4297 2.4688c-0.050781 0.23047-0.070312 0.46875-0.070312 0.71875 0 1.9883 1.6211 3.6211 3.6211 3.6211s3.6211-1.6211 3.6211-3.6211c0-0.67187-0.19141-1.2812-0.51172-1.8203l5.8594-6.5391c0.44922 0.19922 0.94922 0.32031 1.4688 0.32031 1.9883 0 3.6211-1.6211 3.6211-3.6211 0-1.9883-1.6211-3.6211-3.6211-3.6211s-3.6211 1.6211-3.6211 3.6211c0 0.67188 0.19141 1.2812 0.51172 1.8203l-5.8594 6.5391c-0.44922-0.19922-0.94922-0.32031-1.4688-0.32031-0.94922 0-1.8086 0.37891-2.4609 0.98047l-4.4297-2.4688c0.050782-0.23047 0.070313-0.46875 0.070313-0.71875 0-1.9883-1.6211-3.6211-3.6211-3.6211-1.9883 0-3.6211 1.6211-3.6211 3.6211 0 0.67187 0.19141 1.2812 0.51172 1.8203l-5.8594 6.5391c-0.44922-0.19922-0.94922-0.32031-1.4688-0.32031-1.9883 0-3.6211 1.6211-3.6211 3.6211 0.011719 2 1.6328 3.6211 3.6211 3.6211zm31.312-22.5c0.78125 0 1.4102 0.62891 1.4102 1.4102s-0.62891 1.4102-1.4102 1.4102-1.4102-0.62891-1.4102-1.4102 0.62891-1.4102 1.4102-1.4102zm-10.441 11.648c0.78125 0 1.4102 0.62891 1.4102 1.4102s-0.62891 1.4102-1.4102 1.4102-1.4102-0.62891-1.4102-1.4102 0.62891-1.4102 1.4102-1.4102zm-10.43-5.8281c0.78125 0 1.4102 0.62891 1.4102 1.4102s-0.62891 1.4102-1.4102 1.4102-1.4102-0.62891-1.4102-1.4102c0-0.76953 0.62891-1.4102 1.4102-1.4102zm-10.441 11.648c0.78125 0 1.4102 0.62891 1.4102 1.4102s-0.62891 1.4102-1.4102 1.4102-1.4102-0.62891-1.4102-1.4102c0-0.76953 0.62891-1.4102 1.4102-1.4102zm38.27 22.969c0 0.60937-0.48828 1.1016-1.1016 1.1016h-43.027c-0.60938 0-1.1016-0.48828-1.1016-1.1016 0-0.60938 0.48828-1.1016 1.1016-1.1016h43.031c0.60938 0.003906 1.0977 0.49219 1.0977 1.1016zm0 5.9297c0 0.60938-0.48828 1.1016-1.1016 1.1016h-43.027c-0.60938 0-1.1016-0.48828-1.1016-1.1016 0-0.60938 0.48828-1.1016 1.1016-1.1016h43.031c0.60938-0.007812 1.0977 0.49219 1.0977 1.1016zm0 5.9219c0 0.60938-0.48828 1.1016-1.1016 1.1016h-43.027c-0.60938 0-1.1016-0.48828-1.1016-1.1016 0-0.60938 0.48828-1.1016 1.1016-1.1016h43.031c0.60938 0 1.0977 0.49219 1.0977 1.1016zm-13.859 5.9219c0 0.60938-0.48828 1.1016-1.1016 1.1016l-29.168-0.003907c-0.60938 0-1.1016-0.48828-1.1016-1.1016 0-0.60938 0.48828-1.1016 1.1016-1.1016h29.172c0.60938 0.003906 1.0977 0.50391 1.0977 1.1055z"/>
<text x="0.0" y="117.5" font-size="5.0" font-weight="bold" font-family="Arbeit Regular, Helvetica, Arial-Unicode, Arial, Sans-serif" fill="currentColor">Created by Omah Icon</text><text x="0.0" y="122.5" font-size="5.0" font-weight="bold" font-family="Arbeit Regular, Helvetica, Arial-Unicode, Arial, Sans-serif" fill="currentColor">from Noun Project</text></svg>